<svg width="16" height="16" viewBox="0 0 16 16" fill="none" xmlns="http://www.w3.org/2000/svg">
<g id="delete_outline_16">
<path id="&#226;&#134;&#179; Icon Color" fill-rule="evenodd" clip-rule="evenodd" d="M5.04136 3H1.74988C1.33566 3 0.999878 3.33579 0.999878 3.75C0.999878 4.16421 1.33566 4.5 1.74988 4.5H2.29731L3.03554 11.6983C3.07221 12.0561 3.10403 12.3665 3.15054 12.6219C3.19987 12.8928 3.27471 13.1592 3.42729 13.4122C3.6565 13.7922 3.99297 14.0959 4.39437 14.2851C4.66156 14.4111 4.9342 14.4584 5.20876 14.4798C5.46757 14.5 5.77961 14.5 6.13922 14.5H9.86057C10.2202 14.5 10.5322 14.5 10.791 14.4798C11.0656 14.4584 11.3382 14.4111 11.6054 14.2851C12.0068 14.0959 12.3433 13.7922 12.5725 13.4122C12.7251 13.1593 12.7999 12.8929 12.8492 12.6219C12.8957 12.3665 12.9276 12.0562 12.9642 11.6984L13.7026 4.5H14.2499C14.6641 4.5 14.9999 4.16421 14.9999 3.75C14.9999 3.33579 14.6641 3 14.2499 3H10.9584C10.7204 1.58114 9.48638 0.5 7.99988 0.5C6.51338 0.5 5.2794 1.58114 5.04136 3ZM6.58523 3H9.41453C9.20861 2.4174 8.65299 2 7.99988 2C7.34677 2 6.79115 2.4174 6.58523 3ZM12.1947 4.5H3.80518L4.52494 11.5183C4.56519 11.9108 4.59152 12.1623 4.62627 12.3532C4.65936 12.5349 4.69079 12.6027 4.7117 12.6374C4.78811 12.7641 4.90027 12.8653 5.03407 12.9284C5.07069 12.9456 5.14134 12.97 5.3255 12.9844C5.51892 12.9995 5.77186 13 6.16633 13H9.83346C10.2279 13 10.4809 12.9995 10.6743 12.9844C10.8584 12.97 10.9291 12.9456 10.9657 12.9284C11.0995 12.8653 11.2117 12.7641 11.2881 12.6374C11.309 12.6027 11.3404 12.5349 11.3735 12.3532C11.4083 12.1623 11.4346 11.9108 11.4748 11.5184L12.1947 4.5ZM6.21243 5.50094C6.62612 5.48025 6.97826 5.79885 6.99894 6.21255L7.24894 11.2125C7.26963 11.6262 6.95103 11.9784 6.53733 11.9991C6.12363 12.0197 5.7715 11.7011 5.75081 11.2875L5.50081 6.28745C5.48013 5.87376 5.79873 5.52162 6.21243 5.50094ZM9.78733 5.50094C10.201 5.52162 10.5196 5.87376 10.4989 6.28745L10.2489 11.2875C10.2283 11.7011 9.87612 12.0197 9.46243 11.9991C9.04873 11.9784 8.73013 11.6262 8.75081 11.2125L9.00081 6.21255C9.0215 5.79885 9.37363 5.48025 9.78733 5.50094Z" fill="#E1E3E6"/>
</g>
</svg>
