<svg width="21" height="20" viewBox="0 0 21 20" fill="none" xmlns="http://www.w3.org/2000/svg">
<g id="gear_outline_20">
<g id="&#226;&#134;&#179; Icon Color">
<mask id="path-1-outside-1_1494_31329" maskUnits="userSpaceOnUse" x="1" y="0.5" width="19" height="18" fill="black">
<rect fill="white" x="1" y="0.5" width="19" height="18"/>
<path fill-rule="evenodd" clip-rule="evenodd" d="M7.72176 3.37826L7.7313 3.34537C7.7754 3.1953 7.82478 3.05406 7.87982 2.92175C7.88717 2.90408 7.89463 2.88656 7.90218 2.86921C8.25981 2.04778 8.84587 1.58432 9.75627 1.50926L9.92194 1.5L11.1305 1.50075C12.1814 1.53329 12.8649 2.10837 13.2252 3.19249L13.2823 3.37788L13.3264 3.54386C13.3425 3.60779 13.3625 3.67585 13.3859 3.74653L13.4358 3.88444L13.4654 3.89915L13.5254 3.87942L13.6417 3.83513L13.7773 3.77643C13.8338 3.75028 13.8897 3.72555 13.9449 3.70226L13.9812 3.68716C14.1052 3.63607 14.2262 3.59225 14.3444 3.55576C14.3648 3.54948 14.385 3.54342 14.4052 3.53758C15.3374 3.26744 16.0903 3.4618 16.7244 4.15476L16.8333 4.28009L17.5469 5.15975C18.1829 5.99255 18.1636 6.88269 17.5432 7.84345L17.4343 8.00423L17.3324 8.14281C17.2917 8.1966 17.2502 8.25622 17.2089 8.32028L17.1473 8.41954L17.118 8.46922L17.1215 8.48653L17.2013 8.53886L17.3114 8.60499L17.4448 8.67711C18.6535 9.29057 19.1523 10.0973 18.9599 11.218L18.9277 11.3803L18.7153 12.296C18.5777 12.8887 18.4697 13.1692 18.0446 13.5542C17.737 13.8328 17.3971 13.9895 16.9863 14.0725L16.9753 14.0747C16.8379 14.1019 16.6926 14.121 16.538 14.1338L16.3466 14.1461L16.174 14.1516C16.1571 14.1519 16.1399 14.1524 16.1224 14.1531L16.1163 14.1533C16.0663 14.1553 16.0139 14.1589 15.9598 14.1639L15.8025 14.1824L15.8139 14.3057L15.8255 14.3886L15.8536 14.5432C15.9221 14.8646 15.9551 15.1606 15.9515 15.4326L15.9514 15.4447C15.937 16.2843 15.5719 16.8944 14.82 17.3141L14.6727 17.3914L13.6504 17.8852C12.7487 18.2885 11.9277 18.119 11.1664 17.4179C11.144 17.3972 11.1215 17.3761 11.0992 17.3545C11.0734 17.3296 11.0477 17.304 11.0221 17.2779L10.8891 17.1362L10.7762 17.0062C10.7322 16.9542 10.6826 16.9 10.6285 16.845L10.5442 16.7621L10.501 16.7223L10.4212 16.7978L10.3299 16.8913L10.2275 17.0062C9.39874 17.9873 8.52405 18.3395 7.46387 17.9293L7.31114 17.8655L6.39632 17.4233L6.12456 17.285C5.71034 17.0601 5.4779 16.8446 5.25075 16.3675C5.095 16.0404 5.03387 15.7171 5.04221 15.3561L5.04262 15.3405C5.04801 15.1519 5.07214 14.953 5.11147 14.7379L5.15012 14.5432L5.15108 14.5387C5.16452 14.475 5.1763 14.4061 5.18618 14.3334L5.20212 14.185L5.19864 14.1816L5.10843 14.1696L4.98097 14.1582L4.82967 14.1516C4.5124 14.1459 4.22535 14.1138 3.96764 14.0539L3.95635 14.0512C3.1186 13.8534 2.59275 13.3603 2.34763 12.5266L2.30499 12.3665L2.05128 11.2647C1.84675 10.239 2.25641 9.4473 3.23744 8.85424L3.40622 8.75723L3.5589 8.67711C3.61874 8.64674 3.68179 8.61152 3.74666 8.57227L3.88132 8.4848L3.8848 8.46835L3.83038 8.37499L3.76006 8.26667L3.67133 8.14281C3.63254 8.09155 3.59539 8.0406 3.55988 7.98994C3.4962 7.89912 3.4378 7.80924 3.38468 7.72024C2.84416 6.81451 2.85129 5.99911 3.43068 5.19712L3.5313 5.06512L4.24805 4.18795C4.93486 3.39611 5.81429 3.2298 6.88816 3.63354L7.06894 3.7061L7.22642 3.77643C7.28566 3.80386 7.35049 3.83088 7.41948 3.85693L7.53745 3.89829L7.56877 3.88358L7.59803 3.80687L7.63726 3.68749L7.67731 3.54386C7.69147 3.48754 7.70628 3.43234 7.72176 3.37826ZM11.9623 4.21897C11.9665 4.23163 11.9708 4.24424 11.9754 4.25678L12.0253 4.39469C12.1565 4.75748 12.4225 5.05575 12.7679 5.22753L12.7975 5.24225C13.1508 5.41792 13.559 5.44734 13.9338 5.32413L13.9939 5.3044C14.0159 5.29716 14.0378 5.2894 14.0594 5.28114L14.1757 5.23685C14.1965 5.22893 14.2171 5.22055 14.2375 5.21172L14.3731 5.15302C14.3847 5.14803 14.3961 5.14289 14.4075 5.1376C14.4489 5.11847 14.4888 5.10082 14.5274 5.08456C14.638 5.03794 14.7362 5.00337 14.8227 4.9783C15.0914 4.90042 15.2298 4.91843 15.2935 4.93526C15.3501 4.95021 15.4536 4.99136 15.6067 5.15546L15.6843 5.24479L16.3658 6.08472C16.5036 6.26993 16.5166 6.38018 16.5162 6.44399C16.5157 6.52789 16.4867 6.7108 16.2911 7.01732L16.2087 7.13886L16.1293 7.24692C16.0656 7.33163 16.005 7.41942 15.9481 7.50772L15.9349 7.52853L15.8732 7.62779L15.8652 7.64086L15.8543 7.65916L15.8251 7.70883C15.638 8.02696 15.5747 8.40289 15.6474 8.76471L15.6509 8.78202C15.7299 9.17529 15.9632 9.52053 16.2986 9.74061L16.3783 9.79295C16.395 9.80387 16.4118 9.81447 16.4289 9.82473L16.539 9.89085C16.5585 9.90256 16.5782 9.91382 16.5982 9.92462L16.7317 9.99674C16.743 10.0029 16.7544 10.0088 16.7659 10.0147C17.2224 10.2464 17.3858 10.4364 17.4424 10.5306C17.4782 10.5901 17.5255 10.6925 17.4842 10.9481L17.461 11.0647L17.2541 11.9571C17.1878 12.2424 17.1587 12.3072 17.1494 12.3257C17.1494 12.3257 17.1481 12.329 17.1399 12.3392C17.129 12.3527 17.1009 12.3851 17.0377 12.4424C16.9564 12.516 16.8718 12.566 16.6836 12.6033C16.615 12.6169 16.5311 12.6289 16.4269 12.6378L16.2744 12.6477L16.1356 12.6521L16.0645 12.6542C15.9836 12.6573 15.9024 12.6628 15.822 12.6702C15.8093 12.6714 15.7967 12.6727 15.7841 12.6742L15.6267 12.6928C14.8184 12.7881 14.2336 13.5107 14.3089 14.3212L14.3203 14.4444C14.3225 14.4676 14.3252 14.4907 14.3284 14.5137L14.34 14.5966C14.3428 14.6166 14.346 14.6366 14.3496 14.6565L14.3777 14.8112C14.3804 14.8261 14.3834 14.841 14.3865 14.8558C14.4369 15.0921 14.4535 15.2748 14.4517 15.413C14.449 15.6191 14.4064 15.7145 14.3785 15.761C14.3508 15.8071 14.2852 15.8923 14.1029 15.9964L13.9977 16.0517L13.0212 16.5232C12.8173 16.6115 12.7039 16.6052 12.6395 16.5928C12.5627 16.578 12.4107 16.5247 12.1826 16.3145C12.1569 16.2909 12.1305 16.2655 12.1033 16.2381L12.0027 16.1308L11.9146 16.0294C11.8453 15.9478 11.7722 15.8687 11.6977 15.793L11.6802 15.7755L11.5959 15.6926C11.5842 15.6811 11.5723 15.6697 11.5602 15.6586L11.517 15.6188C10.937 15.0848 10.0426 15.091 9.46997 15.6328L9.39022 15.7083C9.37605 15.7217 9.36214 15.7354 9.3485 15.7494L9.25713 15.8428C9.24097 15.8594 9.22518 15.8763 9.2098 15.8936L9.10742 16.0085C9.09869 16.0183 9.09009 16.0282 9.08162 16.0382C8.76729 16.4103 8.54995 16.5341 8.43629 16.5739C8.3632 16.5995 8.25271 16.6232 8.02056 16.5363L7.92705 16.4972L7.06296 16.0795L6.82484 15.9583C6.76624 15.926 6.73252 15.9042 6.71307 15.8904C6.70303 15.8833 6.69728 15.8786 6.69451 15.8763C6.69192 15.8741 6.69077 15.8729 6.69077 15.8729C6.69077 15.8729 6.68977 15.8719 6.68781 15.8695C6.68578 15.8669 6.68151 15.8614 6.67503 15.8516C6.66171 15.8315 6.63834 15.7925 6.60507 15.7227C6.55964 15.6272 6.53757 15.5386 6.54201 15.3833C6.54459 15.293 6.55668 15.1758 6.58513 15.018L6.61961 14.8444C6.64108 14.7421 6.65852 14.6384 6.67249 14.5357C6.67439 14.5217 6.6761 14.5077 6.67761 14.4936L6.69354 14.3452C6.74216 13.8926 6.58258 13.4423 6.25974 13.1214L6.25626 13.1179C6.02369 12.8867 5.72175 12.738 5.39666 12.6947L5.30645 12.6827C5.28494 12.6798 5.26336 12.6774 5.24174 12.6755L5.11428 12.6641C5.0917 12.6621 5.06907 12.6606 5.04643 12.6596L4.89513 12.653C4.88231 12.6525 4.86948 12.6521 4.85665 12.6518C4.6222 12.6476 4.44253 12.6243 4.30703 12.5928C4.09247 12.5429 4.00228 12.4769 3.96085 12.4379C3.92088 12.4003 3.8522 12.3185 3.79134 12.119L3.76103 12.0051L3.51886 10.9534C3.47695 10.7287 3.51336 10.6243 3.5423 10.5663C3.58043 10.4898 3.68847 10.3367 4.00083 10.1456L4.12874 10.0721L4.24798 10.0095C4.34162 9.96161 4.43388 9.90966 4.52319 9.85562C4.53685 9.84736 4.55037 9.83888 4.56376 9.83018L4.69842 9.74271C5.03228 9.52584 5.26623 9.18516 5.34874 8.79571L5.35223 8.77926C5.42944 8.41485 5.36829 8.03474 5.18069 7.71292L5.12626 7.61956C5.11419 7.59885 5.10162 7.57842 5.08856 7.55831L5.01825 7.44999C5.00574 7.43071 4.99279 7.41173 4.9794 7.39304L4.89067 7.26919C4.88308 7.2586 4.87535 7.24811 4.86749 7.23772C4.56016 6.83156 4.4982 6.59144 4.48901 6.48421C4.48322 6.41664 4.48539 6.30313 4.63715 6.08871L4.70887 5.99461L5.39325 5.15707C5.54688 4.98428 5.65513 4.94599 5.72388 4.93191C5.81225 4.91381 6.00255 4.90523 6.34644 5.03243L6.48353 5.08745L6.60656 5.1424C6.69952 5.1851 6.79471 5.2244 6.88973 5.26027C6.90084 5.26446 6.912 5.26852 6.9232 5.27245L7.04117 5.31381C7.41213 5.44387 7.81932 5.42311 8.17512 5.256L8.20645 5.24128C8.55803 5.07615 8.83185 4.78108 8.97028 4.41815L8.99954 4.34144C9.0079 4.31952 9.01575 4.29741 9.02307 4.27512L9.0623 4.15574C9.0694 4.13412 9.07602 4.11233 9.08213 4.09041L9.12218 3.94678C9.12563 3.9344 9.12893 3.92198 9.13206 3.90953C9.14241 3.86835 9.15301 3.8289 9.16383 3.79111C9.20048 3.66307 9.239 3.55638 9.27749 3.46798C9.37742 3.23844 9.46892 3.14896 9.51982 3.11092C9.56389 3.07799 9.65434 3.02511 9.86308 3.00563L9.96335 3.00003L11.103 3.00074C11.3374 3.01092 11.4357 3.07138 11.4885 3.11448C11.5562 3.16969 11.6809 3.30857 11.797 3.65151L11.8401 3.7915L11.8745 3.92077C11.9001 4.02129 11.9299 4.12133 11.9623 4.21897Z"/>
<path fill-rule="evenodd" clip-rule="evenodd" d="M10.5 11.5C11.3284 11.5 12 10.8284 12 10C12 9.17157 11.3284 8.5 10.5 8.5C9.67157 8.5 9 9.17157 9 10C9 10.8284 9.67157 11.5 10.5 11.5ZM10.5 13C12.1569 13 13.5 11.6569 13.5 10C13.5 8.34315 12.1569 7 10.5 7C8.84315 7 7.5 8.34315 7.5 10C7.5 11.6569 8.84315 13 10.5 13Z"/>
</mask>
<path fill-rule="evenodd" clip-rule="evenodd" d="M7.72176 3.37826L7.7313 3.34537C7.7754 3.1953 7.82478 3.05406 7.87982 2.92175C7.88717 2.90408 7.89463 2.88656 7.90218 2.86921C8.25981 2.04778 8.84587 1.58432 9.75627 1.50926L9.92194 1.5L11.1305 1.50075C12.1814 1.53329 12.8649 2.10837 13.2252 3.19249L13.2823 3.37788L13.3264 3.54386C13.3425 3.60779 13.3625 3.67585 13.3859 3.74653L13.4358 3.88444L13.4654 3.89915L13.5254 3.87942L13.6417 3.83513L13.7773 3.77643C13.8338 3.75028 13.8897 3.72555 13.9449 3.70226L13.9812 3.68716C14.1052 3.63607 14.2262 3.59225 14.3444 3.55576C14.3648 3.54948 14.385 3.54342 14.4052 3.53758C15.3374 3.26744 16.0903 3.4618 16.7244 4.15476L16.8333 4.28009L17.5469 5.15975C18.1829 5.99255 18.1636 6.88269 17.5432 7.84345L17.4343 8.00423L17.3324 8.14281C17.2917 8.1966 17.2502 8.25622 17.2089 8.32028L17.1473 8.41954L17.118 8.46922L17.1215 8.48653L17.2013 8.53886L17.3114 8.60499L17.4448 8.67711C18.6535 9.29057 19.1523 10.0973 18.9599 11.218L18.9277 11.3803L18.7153 12.296C18.5777 12.8887 18.4697 13.1692 18.0446 13.5542C17.737 13.8328 17.3971 13.9895 16.9863 14.0725L16.9753 14.0747C16.8379 14.1019 16.6926 14.121 16.538 14.1338L16.3466 14.1461L16.174 14.1516C16.1571 14.1519 16.1399 14.1524 16.1224 14.1531L16.1163 14.1533C16.0663 14.1553 16.0139 14.1589 15.9598 14.1639L15.8025 14.1824L15.8139 14.3057L15.8255 14.3886L15.8536 14.5432C15.9221 14.8646 15.9551 15.1606 15.9515 15.4326L15.9514 15.4447C15.937 16.2843 15.5719 16.8944 14.82 17.3141L14.6727 17.3914L13.6504 17.8852C12.7487 18.2885 11.9277 18.119 11.1664 17.4179C11.144 17.3972 11.1215 17.3761 11.0992 17.3545C11.0734 17.3296 11.0477 17.304 11.0221 17.2779L10.8891 17.1362L10.7762 17.0062C10.7322 16.9542 10.6826 16.9 10.6285 16.845L10.5442 16.7621L10.501 16.7223L10.4212 16.7978L10.3299 16.8913L10.2275 17.0062C9.39874 17.9873 8.52405 18.3395 7.46387 17.9293L7.31114 17.8655L6.39632 17.4233L6.12456 17.285C5.71034 17.0601 5.4779 16.8446 5.25075 16.3675C5.095 16.0404 5.03387 15.7171 5.04221 15.3561L5.04262 15.3405C5.04801 15.1519 5.07214 14.953 5.11147 14.7379L5.15012 14.5432L5.15108 14.5387C5.16452 14.475 5.1763 14.4061 5.18618 14.3334L5.20212 14.185L5.19864 14.1816L5.10843 14.1696L4.98097 14.1582L4.82967 14.1516C4.5124 14.1459 4.22535 14.1138 3.96764 14.0539L3.95635 14.0512C3.1186 13.8534 2.59275 13.3603 2.34763 12.5266L2.30499 12.3665L2.05128 11.2647C1.84675 10.239 2.25641 9.4473 3.23744 8.85424L3.40622 8.75723L3.5589 8.67711C3.61874 8.64674 3.68179 8.61152 3.74666 8.57227L3.88132 8.4848L3.8848 8.46835L3.83038 8.37499L3.76006 8.26667L3.67133 8.14281C3.63254 8.09155 3.59539 8.0406 3.55988 7.98994C3.4962 7.89912 3.4378 7.80924 3.38468 7.72024C2.84416 6.81451 2.85129 5.99911 3.43068 5.19712L3.5313 5.06512L4.24805 4.18795C4.93486 3.39611 5.81429 3.2298 6.88816 3.63354L7.06894 3.7061L7.22642 3.77643C7.28566 3.80386 7.35049 3.83088 7.41948 3.85693L7.53745 3.89829L7.56877 3.88358L7.59803 3.80687L7.63726 3.68749L7.67731 3.54386C7.69147 3.48754 7.70628 3.43234 7.72176 3.37826ZM11.9623 4.21897C11.9665 4.23163 11.9708 4.24424 11.9754 4.25678L12.0253 4.39469C12.1565 4.75748 12.4225 5.05575 12.7679 5.22753L12.7975 5.24225C13.1508 5.41792 13.559 5.44734 13.9338 5.32413L13.9939 5.3044C14.0159 5.29716 14.0378 5.2894 14.0594 5.28114L14.1757 5.23685C14.1965 5.22893 14.2171 5.22055 14.2375 5.21172L14.3731 5.15302C14.3847 5.14803 14.3961 5.14289 14.4075 5.1376C14.4489 5.11847 14.4888 5.10082 14.5274 5.08456C14.638 5.03794 14.7362 5.00337 14.8227 4.9783C15.0914 4.90042 15.2298 4.91843 15.2935 4.93526C15.3501 4.95021 15.4536 4.99136 15.6067 5.15546L15.6843 5.24479L16.3658 6.08472C16.5036 6.26993 16.5166 6.38018 16.5162 6.44399C16.5157 6.52789 16.4867 6.7108 16.2911 7.01732L16.2087 7.13886L16.1293 7.24692C16.0656 7.33163 16.005 7.41942 15.9481 7.50772L15.9349 7.52853L15.8732 7.62779L15.8652 7.64086L15.8543 7.65916L15.8251 7.70883C15.638 8.02696 15.5747 8.40289 15.6474 8.76471L15.6509 8.78202C15.7299 9.17529 15.9632 9.52053 16.2986 9.74061L16.3783 9.79295C16.395 9.80387 16.4118 9.81447 16.4289 9.82473L16.539 9.89085C16.5585 9.90256 16.5782 9.91382 16.5982 9.92462L16.7317 9.99674C16.743 10.0029 16.7544 10.0088 16.7659 10.0147C17.2224 10.2464 17.3858 10.4364 17.4424 10.5306C17.4782 10.5901 17.5255 10.6925 17.4842 10.9481L17.461 11.0647L17.2541 11.9571C17.1878 12.2424 17.1587 12.3072 17.1494 12.3257C17.1494 12.3257 17.1481 12.329 17.1399 12.3392C17.129 12.3527 17.1009 12.3851 17.0377 12.4424C16.9564 12.516 16.8718 12.566 16.6836 12.6033C16.615 12.6169 16.5311 12.6289 16.4269 12.6378L16.2744 12.6477L16.1356 12.6521L16.0645 12.6542C15.9836 12.6573 15.9024 12.6628 15.822 12.6702C15.8093 12.6714 15.7967 12.6727 15.7841 12.6742L15.6267 12.6928C14.8184 12.7881 14.2336 13.5107 14.3089 14.3212L14.3203 14.4444C14.3225 14.4676 14.3252 14.4907 14.3284 14.5137L14.34 14.5966C14.3428 14.6166 14.346 14.6366 14.3496 14.6565L14.3777 14.8112C14.3804 14.8261 14.3834 14.841 14.3865 14.8558C14.4369 15.0921 14.4535 15.2748 14.4517 15.413C14.449 15.6191 14.4064 15.7145 14.3785 15.761C14.3508 15.8071 14.2852 15.8923 14.1029 15.9964L13.9977 16.0517L13.0212 16.5232C12.8173 16.6115 12.7039 16.6052 12.6395 16.5928C12.5627 16.578 12.4107 16.5247 12.1826 16.3145C12.1569 16.2909 12.1305 16.2655 12.1033 16.2381L12.0027 16.1308L11.9146 16.0294C11.8453 15.9478 11.7722 15.8687 11.6977 15.793L11.6802 15.7755L11.5959 15.6926C11.5842 15.6811 11.5723 15.6697 11.5602 15.6586L11.517 15.6188C10.937 15.0848 10.0426 15.091 9.46997 15.6328L9.39022 15.7083C9.37605 15.7217 9.36214 15.7354 9.3485 15.7494L9.25713 15.8428C9.24097 15.8594 9.22518 15.8763 9.2098 15.8936L9.10742 16.0085C9.09869 16.0183 9.09009 16.0282 9.08162 16.0382C8.76729 16.4103 8.54995 16.5341 8.43629 16.5739C8.3632 16.5995 8.25271 16.6232 8.02056 16.5363L7.92705 16.4972L7.06296 16.0795L6.82484 15.9583C6.76624 15.926 6.73252 15.9042 6.71307 15.8904C6.70303 15.8833 6.69728 15.8786 6.69451 15.8763C6.69192 15.8741 6.69077 15.8729 6.69077 15.8729C6.69077 15.8729 6.68977 15.8719 6.68781 15.8695C6.68578 15.8669 6.68151 15.8614 6.67503 15.8516C6.66171 15.8315 6.63834 15.7925 6.60507 15.7227C6.55964 15.6272 6.53757 15.5386 6.54201 15.3833C6.54459 15.293 6.55668 15.1758 6.58513 15.018L6.61961 14.8444C6.64108 14.7421 6.65852 14.6384 6.67249 14.5357C6.67439 14.5217 6.6761 14.5077 6.67761 14.4936L6.69354 14.3452C6.74216 13.8926 6.58258 13.4423 6.25974 13.1214L6.25626 13.1179C6.02369 12.8867 5.72175 12.738 5.39666 12.6947L5.30645 12.6827C5.28494 12.6798 5.26336 12.6774 5.24174 12.6755L5.11428 12.6641C5.0917 12.6621 5.06907 12.6606 5.04643 12.6596L4.89513 12.653C4.88231 12.6525 4.86948 12.6521 4.85665 12.6518C4.6222 12.6476 4.44253 12.6243 4.30703 12.5928C4.09247 12.5429 4.00228 12.4769 3.96085 12.4379C3.92088 12.4003 3.8522 12.3185 3.79134 12.119L3.76103 12.0051L3.51886 10.9534C3.47695 10.7287 3.51336 10.6243 3.5423 10.5663C3.58043 10.4898 3.68847 10.3367 4.00083 10.1456L4.12874 10.0721L4.24798 10.0095C4.34162 9.96161 4.43388 9.90966 4.52319 9.85562C4.53685 9.84736 4.55037 9.83888 4.56376 9.83018L4.69842 9.74271C5.03228 9.52584 5.26623 9.18516 5.34874 8.79571L5.35223 8.77926C5.42944 8.41485 5.36829 8.03474 5.18069 7.71292L5.12626 7.61956C5.11419 7.59885 5.10162 7.57842 5.08856 7.55831L5.01825 7.44999C5.00574 7.43071 4.99279 7.41173 4.9794 7.39304L4.89067 7.26919C4.88308 7.2586 4.87535 7.24811 4.86749 7.23772C4.56016 6.83156 4.4982 6.59144 4.48901 6.48421C4.48322 6.41664 4.48539 6.30313 4.63715 6.08871L4.70887 5.99461L5.39325 5.15707C5.54688 4.98428 5.65513 4.94599 5.72388 4.93191C5.81225 4.91381 6.00255 4.90523 6.34644 5.03243L6.48353 5.08745L6.60656 5.1424C6.69952 5.1851 6.79471 5.2244 6.88973 5.26027C6.90084 5.26446 6.912 5.26852 6.9232 5.27245L7.04117 5.31381C7.41213 5.44387 7.81932 5.42311 8.17512 5.256L8.20645 5.24128C8.55803 5.07615 8.83185 4.78108 8.97028 4.41815L8.99954 4.34144C9.0079 4.31952 9.01575 4.29741 9.02307 4.27512L9.0623 4.15574C9.0694 4.13412 9.07602 4.11233 9.08213 4.09041L9.12218 3.94678C9.12563 3.9344 9.12893 3.92198 9.13206 3.90953C9.14241 3.86835 9.15301 3.8289 9.16383 3.79111C9.20048 3.66307 9.239 3.55638 9.27749 3.46798C9.37742 3.23844 9.46892 3.14896 9.51982 3.11092C9.56389 3.07799 9.65434 3.02511 9.86308 3.00563L9.96335 3.00003L11.103 3.00074C11.3374 3.01092 11.4357 3.07138 11.4885 3.11448C11.5562 3.16969 11.6809 3.30857 11.797 3.65151L11.8401 3.7915L11.8745 3.92077C11.9001 4.02129 11.9299 4.12133 11.9623 4.21897Z" fill="#76787A"/>
<path fill-rule="evenodd" clip-rule="evenodd" d="M10.5 11.5C11.3284 11.5 12 10.8284 12 10C12 9.17157 11.3284 8.5 10.5 8.5C9.67157 8.5 9 9.17157 9 10C9 10.8284 9.67157 11.5 10.5 11.5ZM10.5 13C12.1569 13 13.5 11.6569 13.5 10C13.5 8.34315 12.1569 7 10.5 7C8.84315 7 7.5 8.34315 7.5 10C7.5 11.6569 8.84315 13 10.5 13Z" fill="#76787A"/>
<path d="M7.67369 3.3645C7.66609 3.39104 7.68145 3.41873 7.708 3.42633C7.73455 3.43393 7.76223 3.41857 7.76983 3.39202L7.67369 3.3645ZM7.77927 3.35947C7.78706 3.33297 7.77189 3.30519 7.7454 3.2974C7.7189 3.28961 7.69111 3.30478 7.68333 3.33127L7.77927 3.35947ZM13.9255 3.65618C13.9001 3.6669 13.8881 3.69622 13.8989 3.72167C13.9096 3.74712 13.9389 3.75906 13.9644 3.74834L13.9255 3.65618ZM14.0002 3.73339C14.0258 3.72287 14.0379 3.69364 14.0274 3.66811C14.0169 3.64258 13.9877 3.63041 13.9621 3.64092L14.0002 3.73339ZM16.9962 14.1215C17.0233 14.116 17.0408 14.0897 17.0353 14.0626C17.0299 14.0355 17.0035 14.018 16.9764 14.0235L16.9962 14.1215ZM16.9655 14.0257C16.9384 14.031 16.9208 14.0574 16.9262 14.0844C16.9316 14.1115 16.9579 14.1291 16.985 14.1238L16.9655 14.0257ZM16.1243 14.203C16.1519 14.202 16.1734 14.1787 16.1724 14.1511C16.1713 14.1235 16.1481 14.102 16.1205 14.1031L16.1243 14.203ZM16.1143 14.1033C16.0867 14.1045 16.0652 14.1278 16.0664 14.1553C16.0675 14.1829 16.0908 14.2044 16.1184 14.2033L16.1143 14.1033ZM16.0015 15.4333C16.0019 15.4057 15.9798 15.383 15.9522 15.3826C15.9246 15.3823 15.9019 15.4044 15.9015 15.432L16.0015 15.4333ZM15.9014 15.4438C15.9009 15.4714 15.9229 15.4942 15.9505 15.4947C15.9781 15.4952 16.0009 15.4732 16.0014 15.4455L15.9014 15.4438ZM3.96785 14.0026C3.94097 13.9962 3.91404 14.0129 3.90769 14.0397C3.90134 14.0666 3.91798 14.0936 3.94485 14.0999L3.96785 14.0026ZM3.95634 14.1026C3.98323 14.1088 4.0101 14.0921 4.01635 14.0652C4.02259 14.0383 4.00585 14.0114 3.97895 14.0052L3.95634 14.1026ZM5.0926 15.3419C5.09339 15.3143 5.07165 15.2913 5.04405 15.2905C5.01644 15.2897 4.99343 15.3114 4.99264 15.339L5.0926 15.3419ZM4.99223 15.355C4.99159 15.3826 5.01345 15.4055 5.04106 15.4061C5.06866 15.4068 5.09156 15.3849 5.0922 15.3573L4.99223 15.355ZM16.0625 12.6042C16.0349 12.6053 16.0134 12.6285 16.0145 12.6561C16.0156 12.6837 16.0388 12.7052 16.0664 12.7041L16.0625 12.6042ZM16.1367 12.702C16.1643 12.7015 16.1862 12.6786 16.1856 12.651C16.185 12.6234 16.1622 12.6015 16.1346 12.6021L16.1367 12.702ZM15.8112 7.63381C15.7972 7.65761 15.8051 7.68826 15.8289 7.70225C15.8527 7.71625 15.8834 7.70831 15.8974 7.6845L15.8112 7.63381ZM15.8652 7.64086L15.9079 7.66682L15.9079 7.66682L15.8652 7.64086ZM15.9157 7.65418C15.9303 7.63073 15.9231 7.5999 15.8996 7.58532C15.8762 7.57075 15.8453 7.57794 15.8308 7.6014L15.9157 7.65418ZM7.76983 3.39202C7.77295 3.38112 7.7761 3.37027 7.77927 3.35947L7.68333 3.33127C7.68009 3.3423 7.67688 3.35338 7.67369 3.3645L7.76983 3.39202ZM13.9644 3.74834C13.9763 3.74328 13.9883 3.7383 14.0002 3.73339L13.9621 3.64092C13.95 3.64594 13.9378 3.65103 13.9255 3.65618L13.9644 3.74834ZM16.9764 14.0235C16.9728 14.0242 16.9692 14.025 16.9655 14.0257L16.985 14.1238C16.9887 14.123 16.9925 14.1223 16.9962 14.1215L16.9764 14.0235ZM16.1205 14.1031C16.1184 14.1032 16.1163 14.1033 16.1143 14.1033L16.1184 14.2033C16.1203 14.2032 16.1223 14.2031 16.1243 14.203L16.1205 14.1031ZM15.9015 15.432C15.9015 15.4359 15.9014 15.4399 15.9014 15.4438L16.0014 15.4455C16.0014 15.4415 16.0015 15.4374 16.0015 15.4333L15.9015 15.432ZM3.97895 14.0052C3.97525 14.0043 3.97155 14.0035 3.96785 14.0026L3.94485 14.0999C3.94867 14.1008 3.9525 14.1017 3.95634 14.1026L3.97895 14.0052ZM5.0922 15.3573C5.09232 15.3522 5.09245 15.3471 5.0926 15.3419L4.99264 15.339C4.99249 15.3444 4.99235 15.3497 4.99223 15.355L5.0922 15.3573ZM15.8225 7.61491C15.8187 7.62118 15.8149 7.62748 15.8112 7.63381L15.8974 7.6845C15.9009 7.67858 15.9044 7.67269 15.9079 7.66682L15.8225 7.61491ZM15.8308 7.6014C15.828 7.60589 15.8252 7.61039 15.8225 7.61491L15.9079 7.66682C15.9105 7.66259 15.9131 7.65838 15.9157 7.65418L15.8308 7.6014ZM16.1346 12.6021C16.1106 12.6026 16.0865 12.6033 16.0625 12.6042L16.0664 12.7041C16.0898 12.7032 16.1133 12.7025 16.1367 12.702L16.1346 12.6021ZM11.9623 4.21897L12.0572 4.18747L12.0572 4.18747L11.9623 4.21897ZM11.9754 4.25678L11.8813 4.2908L11.8813 4.2908L11.9754 4.25678ZM11.8745 3.92077L11.9714 3.8961L11.9711 3.89506L11.8745 3.92077ZM11.8401 3.7915L11.9368 3.76577L11.9357 3.76207L11.8401 3.7915ZM11.797 3.65151L11.8926 3.62208L11.8917 3.61945L11.797 3.65151ZM11.4885 3.11448L11.5517 3.037L11.5517 3.037L11.4885 3.11448ZM11.103 3.00074L11.1073 2.90074L11.103 2.90074L11.103 3.00074ZM9.96335 3.00003L9.96341 2.89987L9.95777 2.90018L9.96335 3.00003ZM9.86308 3.00563L9.8575 2.90572L9.85379 2.90606L9.86308 3.00563ZM9.51982 3.11092L9.45997 3.03082L9.45996 3.03082L9.51982 3.11092ZM9.27749 3.46798L9.36918 3.5079L9.27749 3.46798ZM9.16383 3.79111L9.25996 3.81863L9.25997 3.81863L9.16383 3.79111ZM7.72176 3.37826L7.62572 3.3504L7.62562 3.35074L7.72176 3.37826ZM7.7313 3.34537L7.63536 3.31718L7.63526 3.31752L7.7313 3.34537ZM7.87982 2.92175L7.78749 2.88333V2.88333L7.87982 2.92175ZM7.90218 2.86921L7.81049 2.8293V2.8293L7.90218 2.86921ZM9.75627 1.50926L9.75069 1.40938L9.74805 1.4096L9.75627 1.50926ZM9.92194 1.5L9.922 1.39984L9.91636 1.40016L9.92194 1.5ZM11.1305 1.50075L11.1336 1.40076L11.1306 1.40075L11.1305 1.50075ZM13.2252 3.19249L13.3208 3.16306L13.3201 3.16095L13.2252 3.19249ZM13.2823 3.37788L13.379 3.35215L13.3778 3.34846L13.2823 3.37788ZM13.3264 3.54386L13.4234 3.51948L13.423 3.51815L13.3264 3.54386ZM13.3859 3.74653L13.291 3.77804L13.2919 3.78055L13.3859 3.74653ZM13.4358 3.88444L13.3418 3.91846C13.3505 3.94264 13.3683 3.96253 13.3913 3.97398L13.4358 3.88444ZM13.4654 3.89915L13.4209 3.98869C13.4444 4.0004 13.4716 4.00237 13.4966 3.99415L13.4654 3.89915ZM13.5254 3.87942L13.5567 3.97452L13.561 3.97287L13.5254 3.87942ZM13.6417 3.83513L13.6773 3.92867L13.6814 3.9269L13.6417 3.83513ZM13.7773 3.77643L13.817 3.86823L13.8193 3.86718L13.7773 3.77643ZM13.9449 3.70226L13.9065 3.60995L13.9061 3.6101L13.9449 3.70226ZM13.9812 3.68716L13.9431 3.59469L13.9427 3.59485L13.9812 3.68716ZM14.3444 3.55576L14.3149 3.46021V3.46021L14.3444 3.55576ZM14.4052 3.53758L14.3773 3.44153L14.3773 3.44153L14.4052 3.53758ZM16.7244 4.15476L16.7999 4.08915L16.7981 4.08725L16.7244 4.15476ZM16.8333 4.28009L16.911 4.21705L16.9087 4.2145L16.8333 4.28009ZM17.5469 5.15975L17.6264 5.09904L17.6246 5.09675L17.5469 5.15975ZM17.5432 7.84345L17.626 7.89956L17.6273 7.89769L17.5432 7.84345ZM17.4343 8.00423L17.5149 8.06352L17.5171 8.06033L17.4343 8.00423ZM17.3324 8.14281L17.4121 8.20316L17.4129 8.20206L17.3324 8.14281ZM17.2089 8.32028L17.1249 8.2661L17.124 8.2675L17.2089 8.32028ZM17.1473 8.41954L17.0623 8.36674L17.0611 8.36885L17.1473 8.41954ZM17.118 8.46922L17.0318 8.41853C17.0194 8.43973 17.0152 8.4648 17.02 8.48892L17.118 8.46922ZM17.1215 8.48653L17.0235 8.50622C17.0288 8.53244 17.0443 8.55546 17.0667 8.57013L17.1215 8.48653ZM17.2013 8.53886L17.1464 8.62253L17.1498 8.62459L17.2013 8.53886ZM17.3114 8.60499L17.2598 8.6908L17.2638 8.69297L17.3114 8.60499ZM17.4448 8.67711L17.3973 8.76511L17.3996 8.76628L17.4448 8.67711ZM18.9599 11.218L19.058 11.2375L19.0584 11.2349L18.9599 11.218ZM18.9277 11.3803L19.0251 11.4029L19.0258 11.3997L18.9277 11.3803ZM18.7153 12.296L18.8127 12.3186L18.8127 12.3186L18.7153 12.296ZM18.0446 13.5542L18.1117 13.6283L18.0446 13.5542ZM16.9863 14.0725L17.0059 14.1706L17.0061 14.1705L16.9863 14.0725ZM16.9753 14.0747L16.9947 14.1728L16.9949 14.1728L16.9753 14.0747ZM16.538 14.1338L16.5445 14.2336L16.5462 14.2334L16.538 14.1338ZM16.3466 14.1461L16.3497 14.2461L16.353 14.2459L16.3466 14.1461ZM16.174 14.1516L16.1758 14.2516L16.1772 14.2515L16.174 14.1516ZM16.1224 14.1531L16.1185 14.0531L16.1184 14.0531L16.1224 14.1531ZM16.1163 14.1533L16.1123 14.0534L16.1122 14.0534L16.1163 14.1533ZM15.9598 14.1639L15.9507 14.0643L15.9481 14.0646L15.9598 14.1639ZM15.8025 14.1824L15.7908 14.0831C15.7369 14.0895 15.6979 14.1377 15.7029 14.1917L15.8025 14.1824ZM15.8139 14.3057L15.7142 14.3149L15.7149 14.3195L15.8139 14.3057ZM15.8255 14.3886L15.7264 14.4025L15.7271 14.4064L15.8255 14.3886ZM15.8536 14.5432L15.7552 14.5611L15.7558 14.5641L15.8536 14.5432ZM15.9515 15.4326L16.0515 15.4342L16.0515 15.434L15.9515 15.4326ZM15.9514 15.4447L16.0513 15.4464L16.0513 15.4462L15.9514 15.4447ZM14.82 17.3141L14.8665 17.4027L14.8688 17.4014L14.82 17.3141ZM14.6727 17.3914L14.7162 17.4815L14.7192 17.48L14.6727 17.3914ZM13.6504 17.8852L13.6913 17.9765L13.6939 17.9752L13.6504 17.8852ZM11.1664 17.4179L11.2342 17.3444H11.2342L11.1664 17.4179ZM12.1826 16.3145L12.1148 16.3881L12.1826 16.3145ZM12.1033 16.2381L12.0304 16.3065L12.0323 16.3085L12.1033 16.2381ZM12.0027 16.1308L11.9271 16.1964L11.9297 16.1992L12.0027 16.1308ZM11.9146 16.0294L11.8384 16.0942L11.8391 16.095L11.9146 16.0294ZM11.6977 15.793L11.769 15.7229L11.7684 15.7223L11.6977 15.793ZM11.6802 15.7755L11.7509 15.7048L11.7504 15.7042L11.6802 15.7755ZM11.5959 15.6926L11.5258 15.7639L11.5258 15.7639L11.5959 15.6926ZM11.5602 15.6586L11.6279 15.585L11.6279 15.585L11.5602 15.6586ZM11.517 15.6188L11.5847 15.5452V15.5452L11.517 15.6188ZM9.46997 15.6328L9.53871 15.7055H9.53871L9.46997 15.6328ZM9.39022 15.7083L9.32149 15.6357L9.32149 15.6357L9.39022 15.7083ZM9.3485 15.7494L9.42001 15.8193L9.3485 15.7494ZM9.25713 15.8428L9.32865 15.9127L9.32865 15.9127L9.25713 15.8428ZM9.2098 15.8936L9.13513 15.8271L9.13513 15.8271L9.2098 15.8936ZM9.10742 16.0085L9.03275 15.942L9.03275 15.942L9.10742 16.0085ZM9.08162 16.0382L9.15801 16.1028L9.15801 16.1028L9.08162 16.0382ZM8.43629 16.5739L8.40322 16.4795L8.40321 16.4795L8.43629 16.5739ZM8.02056 16.5363L7.98199 16.6286L7.98548 16.6299L8.02056 16.5363ZM7.92705 16.4972L7.88346 16.5874L7.88851 16.5895L7.92705 16.4972ZM7.06296 16.0795L7.01759 16.1687L7.01944 16.1696L7.06296 16.0795ZM6.82484 15.9583L6.77648 16.0459L6.77949 16.0475L6.82484 15.9583ZM6.71307 15.8904L6.77092 15.8088H6.77092L6.71307 15.8904ZM6.69451 15.8763L6.62995 15.9526L6.62995 15.9526L6.69451 15.8763ZM6.69077 15.8729L6.76239 15.8031L6.7618 15.8025L6.69077 15.8729ZM6.68781 15.8695L6.76581 15.8069L6.7658 15.8069L6.68781 15.8695ZM6.67503 15.8516L6.75837 15.7963L6.75837 15.7963L6.67503 15.8516ZM6.60507 15.7227L6.51478 15.7657L6.51478 15.7657L6.60507 15.7227ZM6.54201 15.3833L6.44205 15.3805L6.54201 15.3833ZM6.58513 15.018L6.48703 14.9985L6.48671 15.0003L6.58513 15.018ZM6.61961 14.8444L6.52174 14.8238L6.52153 14.8249L6.61961 14.8444ZM6.67249 14.5357L6.77158 14.5492H6.77158L6.67249 14.5357ZM6.67761 14.4936L6.77703 14.5043L6.77703 14.5043L6.67761 14.4936ZM6.69354 14.3452L6.79297 14.3559L6.69354 14.3452ZM6.25974 13.1214L6.18923 13.1923L6.18923 13.1923L6.25974 13.1214ZM6.25626 13.1179L6.32678 13.047L6.32677 13.047L6.25626 13.1179ZM5.39666 12.6947L5.38346 12.7938H5.38346L5.39666 12.6947ZM5.30645 12.6827L5.31966 12.5836H5.31965L5.30645 12.6827ZM5.24174 12.6755L5.25063 12.5759H5.25063L5.24174 12.6755ZM5.11428 12.6641L5.10539 12.7637L5.10539 12.7637L5.11428 12.6641ZM5.04643 12.6596L5.04206 12.7595H5.04207L5.04643 12.6596ZM4.89513 12.653L4.89076 12.7529L4.89077 12.7529L4.89513 12.653ZM4.85665 12.6518L4.85485 12.7518H4.85485L4.85665 12.6518ZM4.30703 12.5928L4.32966 12.4954L4.30703 12.5928ZM3.96085 12.4379L4.02935 12.3651L3.96085 12.4379ZM3.79134 12.119L3.69464 12.1447L3.69569 12.1482L3.79134 12.119ZM3.76103 12.0051L3.66352 12.0276L3.66439 12.0309L3.76103 12.0051ZM3.51886 10.9534L3.42047 10.9718L3.42141 10.9759L3.51886 10.9534ZM3.5423 10.5663L3.45279 10.5217L3.5423 10.5663ZM4.00083 10.1456L3.95098 10.0589L3.94864 10.0603L4.00083 10.1456ZM4.12874 10.0721L4.08224 9.98346L4.07891 9.98537L4.12874 10.0721ZM4.24798 10.0095L4.20246 9.92045L4.20151 9.92094L4.24798 10.0095ZM4.52319 9.85562L4.57496 9.94118H4.57496L4.52319 9.85562ZM4.56376 9.83018L4.50929 9.74632H4.50929L4.56376 9.83018ZM4.69842 9.74271L4.7529 9.82657L4.69842 9.74271ZM5.34874 8.79571L5.25092 8.77497L5.25091 8.77498L5.34874 8.79571ZM5.35223 8.77926L5.45005 8.8L5.45006 8.79999L5.35223 8.77926ZM5.18069 7.71292L5.26708 7.66256L5.26708 7.66256L5.18069 7.71292ZM5.12626 7.61956L5.03987 7.66992H5.03987L5.12626 7.61956ZM5.08856 7.55831L5.00468 7.61276L5.00468 7.61276L5.08856 7.55831ZM5.01825 7.44999L4.93437 7.50443L5.01825 7.44999ZM4.9794 7.39304L4.89811 7.45129L4.9794 7.39304ZM4.89067 7.26919L4.80938 7.32743L4.80938 7.32743L4.89067 7.26919ZM4.86749 7.23772L4.94723 7.17738L4.94723 7.17738L4.86749 7.23772ZM4.48901 6.48421L4.38937 6.49276L4.48901 6.48421ZM4.63715 6.08871L4.55757 6.02805L4.55552 6.03094L4.63715 6.08871ZM4.70887 5.99461L4.63139 5.9313L4.62934 5.93399L4.70887 5.99461ZM5.39325 5.15707L5.31845 5.09057L5.31581 5.0938L5.39325 5.15707ZM5.72388 4.93191L5.70382 4.83394H5.70382L5.72388 4.93191ZM6.34644 5.03243L6.3837 4.93959L6.38113 4.93864L6.34644 5.03243ZM6.48353 5.08745L6.52433 4.99608L6.52078 4.99465L6.48353 5.08745ZM6.60656 5.1424L6.64831 5.05152L6.64734 5.05109L6.60656 5.1424ZM6.88973 5.26027L6.85442 5.35382L6.85442 5.35382L6.88973 5.26027ZM6.9232 5.27245L6.95629 5.17808L6.95628 5.17808L6.9232 5.27245ZM7.04117 5.31381L7.00809 5.40818L7.04117 5.31381ZM8.17512 5.256L8.13261 5.16548L8.17512 5.256ZM8.20645 5.24128L8.24896 5.3318L8.20645 5.24128ZM8.97028 4.41815L8.87685 4.38251V4.38251L8.97028 4.41815ZM8.99954 4.34144L9.09298 4.37708V4.37708L8.99954 4.34144ZM9.02307 4.27512L8.92807 4.2439L9.02307 4.27512ZM9.0623 4.15574L9.1573 4.18696V4.18696L9.0623 4.15574ZM9.08213 4.09041L8.98581 4.06355V4.06355L9.08213 4.09041ZM9.12218 3.94678L9.21851 3.97364L9.21851 3.97364L9.12218 3.94678ZM9.13206 3.90953L9.03507 3.88515L9.03507 3.88515L9.13206 3.90953ZM7.67731 3.54386L7.77367 3.57073L7.77429 3.56824L7.67731 3.54386ZM7.63726 3.68749L7.73236 3.71874L7.73358 3.71435L7.63726 3.68749ZM7.59803 3.80687L7.69157 3.84254L7.69303 3.83808L7.59803 3.80687ZM7.56877 3.88358L7.61128 3.97409C7.63472 3.96308 7.65298 3.94341 7.66221 3.91921L7.56877 3.88358ZM7.53745 3.89829L7.50436 3.99266C7.5291 4.00133 7.55624 3.99994 7.57996 3.9888L7.53745 3.89829ZM7.41948 3.85693L7.38415 3.95051L7.38639 3.95129L7.41948 3.85693ZM7.22642 3.77643L7.26844 3.68568L7.26719 3.68512L7.22642 3.77643ZM7.06894 3.7061L7.10974 3.61473L7.10619 3.6133L7.06894 3.7061ZM6.88816 3.63354L6.92542 3.54072L6.92335 3.53994L6.88816 3.63354ZM4.24805 4.18795L4.17248 4.1224L4.17062 4.12468L4.24805 4.18795ZM3.5313 5.06512L3.45382 5.00181L3.45177 5.0045L3.5313 5.06512ZM3.43068 5.19712L3.35112 5.13648L3.34962 5.13856L3.43068 5.19712ZM3.38468 7.72024L3.29881 7.77149H3.29881L3.38468 7.72024ZM3.55988 7.98994L3.64176 7.93254H3.64176L3.55988 7.98994ZM3.67133 8.14281L3.75264 8.08455L3.75107 8.08247L3.67133 8.14281ZM3.76006 8.26667L3.84403 8.21216L3.84135 8.20842L3.76006 8.26667ZM3.83038 8.37499L3.91687 8.32457L3.91426 8.32055L3.83038 8.37499ZM3.8848 8.46835L3.98263 8.48908C3.98778 8.46478 3.9837 8.43945 3.97119 8.41799L3.8848 8.46835ZM3.88132 8.4848L3.93579 8.56866C3.95805 8.5542 3.97365 8.53148 3.97915 8.50552L3.88132 8.4848ZM3.74666 8.57227L3.79845 8.65787L3.80113 8.65613L3.74666 8.57227ZM3.5589 8.67711L3.51363 8.58793L3.51243 8.58856L3.5589 8.67711ZM3.40622 8.75723L3.35972 8.66862L3.35639 8.67053L3.40622 8.75723ZM3.23744 8.85424L3.18759 8.76752L3.1857 8.76866L3.23744 8.85424ZM2.05128 11.2647L1.95317 11.2843L1.95383 11.2872L2.05128 11.2647ZM2.30499 12.3665L2.20748 12.389L2.20836 12.3923L2.30499 12.3665ZM2.34763 12.5266L2.25096 12.5524L2.25169 12.5549L2.34763 12.5266ZM3.95635 14.0512L3.93336 14.1486L3.93354 14.1486L3.95635 14.0512ZM3.96764 14.0539L3.94484 14.1513L3.94502 14.1513L3.96764 14.0539ZM4.82967 14.1516L4.83403 14.0517L4.83147 14.0516L4.82967 14.1516ZM4.98097 14.1582L4.98986 14.0585L4.98533 14.0583L4.98097 14.1582ZM5.10843 14.1696L5.12165 14.0704L5.11732 14.07L5.10843 14.1696ZM5.19864 14.1816L5.26914 14.1107C5.25363 14.0953 5.23351 14.0853 5.21184 14.0825L5.19864 14.1816ZM5.20212 14.185L5.30155 14.1957C5.30479 14.1655 5.29415 14.1355 5.27262 14.1141L5.20212 14.185ZM5.18618 14.3334L5.28531 14.3469L5.28561 14.3441L5.18618 14.3334ZM5.15108 14.5387L5.2489 14.5595L5.24892 14.5594L5.15108 14.5387ZM5.15012 14.5432L5.05229 14.5225L5.05203 14.5238L5.15012 14.5432ZM5.11147 14.7379L5.01338 14.7184L5.0131 14.7199L5.11147 14.7379ZM5.04262 15.3405L4.94266 15.3376L4.94265 15.3379L5.04262 15.3405ZM5.04221 15.3561L4.94225 15.3536L4.94224 15.3538L5.04221 15.3561ZM5.25075 16.3675L5.34104 16.3245L5.25075 16.3675ZM6.12456 17.285L6.07681 17.3729L6.07921 17.3742L6.12456 17.285ZM6.39632 17.4233L6.35095 17.5125L6.3528 17.5134L6.39632 17.4233ZM7.31114 17.8655L7.26756 17.9557L7.2726 17.9578L7.31114 17.8655ZM7.46387 17.9293L7.42532 18.0216L7.4278 18.0226L7.46387 17.9293ZM10.2275 17.0062L10.1528 16.9397L10.1511 16.9417L10.2275 17.0062ZM10.3299 16.8913L10.2583 16.8213L10.2552 16.8248L10.3299 16.8913ZM10.4212 16.7978L10.3524 16.7251L10.3497 16.7279L10.4212 16.7978ZM10.501 16.7223L10.5687 16.6488C10.5301 16.6132 10.4704 16.6136 10.4323 16.6497L10.501 16.7223ZM10.5442 16.7621L10.6143 16.6908L10.6119 16.6885L10.5442 16.7621ZM10.6285 16.845L10.6998 16.7749L10.6986 16.7737L10.6285 16.845ZM10.7762 17.0062L10.6998 17.0708L10.7007 17.0718L10.7762 17.0062ZM10.8891 17.1362L10.8135 17.2018L10.8161 17.2046L10.8891 17.1362ZM11.0221 17.2779L10.9491 17.3464L10.9507 17.3479L11.0221 17.2779ZM11.0992 17.3545L11.1687 17.2826L11.0992 17.3545ZM13.0212 16.5232L13.061 16.6151L13.0647 16.6133L13.0212 16.5232ZM12.6395 16.5928L12.6206 16.691L12.6206 16.691L12.6395 16.5928ZM13.9977 16.0517L14.0412 16.1418L14.0442 16.1402L13.9977 16.0517ZM14.1029 15.9964L14.1495 16.085L14.1525 16.0833L14.1029 15.9964ZM14.3785 15.761L14.4643 15.8124L14.3785 15.761ZM14.4517 15.413L14.3517 15.4117L14.4517 15.413ZM14.3865 14.8558L14.4843 14.835V14.835L14.3865 14.8558ZM14.3777 14.8112L14.2793 14.829V14.829L14.3777 14.8112ZM14.3496 14.6565L14.2512 14.6744L14.2512 14.6744L14.3496 14.6565ZM14.34 14.5966L14.241 14.6105L14.34 14.5966ZM14.3284 14.5137L14.2294 14.5276L14.3284 14.5137ZM14.3203 14.4444L14.2208 14.4536V14.4536L14.3203 14.4444ZM14.3089 14.3212L14.2093 14.3304L14.3089 14.3212ZM15.6267 12.6928L15.615 12.5935L15.6267 12.6928ZM15.7841 12.6742L15.7958 12.7735L15.7958 12.7735L15.7841 12.6742ZM15.822 12.6702L15.8128 12.5707H15.8128L15.822 12.6702ZM16.0645 12.6542L16.0615 12.5542L16.0606 12.5543L16.0645 12.6542ZM16.2744 12.6477L16.2776 12.7477L16.2809 12.7475L16.2744 12.6477ZM16.1356 12.6521L16.1386 12.752L16.1388 12.752L16.1356 12.6521ZM16.4269 12.6378L16.4334 12.7376L16.4355 12.7374L16.4269 12.6378ZM16.6836 12.6033L16.703 12.7014H16.703L16.6836 12.6033ZM17.0377 12.4424L17.1048 12.5165V12.5165L17.0377 12.4424ZM17.1399 12.3392L17.062 12.2765L17.062 12.2765L17.1399 12.3392ZM17.1494 12.3257L17.0596 12.2803L17.0558 12.2905L17.1494 12.3257ZM17.2541 11.9571L17.3515 11.9798L17.3515 11.9797L17.2541 11.9571ZM17.461 11.0647L17.5585 11.0873L17.5591 11.0842L17.461 11.0647ZM17.4842 10.9481L17.5823 10.9676L17.5829 10.964L17.4842 10.9481ZM17.4424 10.5306L17.5281 10.479V10.479L17.4424 10.5306ZM16.7659 10.0147L16.7207 10.1039L16.7207 10.1039L16.7659 10.0147ZM16.7317 9.99674L16.7792 9.90876L16.7792 9.90876L16.7317 9.99674ZM16.5982 9.92462L16.5507 10.0126L16.5507 10.0126L16.5982 9.92462ZM16.539 9.89085L16.5905 9.80513H16.5905L16.539 9.89085ZM16.4289 9.82473L16.4804 9.739L16.4804 9.739L16.4289 9.82473ZM16.3783 9.79295L16.4332 9.70934L16.4332 9.70934L16.3783 9.79295ZM16.2986 9.74061L16.2437 9.82421H16.2437L16.2986 9.74061ZM15.6509 8.78202L15.749 8.76232L15.749 8.76232L15.6509 8.78202ZM15.6474 8.76471L15.5494 8.78441L15.5494 8.78441L15.6474 8.76471ZM15.8251 7.70883L15.7389 7.65814V7.65814L15.8251 7.70883ZM15.8543 7.65916L15.7684 7.60785L15.7681 7.60846L15.8543 7.65916ZM15.8652 7.64086L15.78 7.58851L15.7794 7.58956L15.8652 7.64086ZM15.8732 7.62779L15.7883 7.57501L15.788 7.57544L15.8732 7.62779ZM15.9349 7.52853L15.8504 7.47505L15.85 7.47575L15.9349 7.52853ZM15.9481 7.50772L15.864 7.45355L15.8636 7.45424L15.9481 7.50772ZM16.1293 7.24692L16.2092 7.30703L16.2098 7.30617L16.1293 7.24692ZM16.2087 7.13886L16.2894 7.19815L16.2915 7.19496L16.2087 7.13886ZM16.2911 7.01732L16.3739 7.07344L16.3754 7.0711L16.2911 7.01732ZM16.5162 6.44399L16.4162 6.44335V6.44335L16.5162 6.44399ZM16.3658 6.08472L16.446 6.02496L16.4434 6.02172L16.3658 6.08472ZM15.6843 5.24479L15.762 5.18175L15.7598 5.1792L15.6843 5.24479ZM15.6067 5.15546L15.6823 5.08983L15.6798 5.08723L15.6067 5.15546ZM15.2935 4.93526L15.319 4.83858H15.319L15.2935 4.93526ZM14.8227 4.9783L14.8505 5.07435V5.07435L14.8227 4.9783ZM14.5274 5.08456L14.4886 4.99241V4.99241L14.5274 5.08456ZM14.4075 5.1376L14.3655 5.04686L14.3655 5.04686L14.4075 5.1376ZM14.3731 5.15302L14.4128 5.2448L14.4128 5.24479L14.3731 5.15302ZM14.2375 5.21172L14.1978 5.11995L14.1978 5.11995L14.2375 5.21172ZM14.1757 5.23685L14.2113 5.3303V5.3303L14.1757 5.23685ZM14.0594 5.28114L14.095 5.37459L14.0594 5.28114ZM13.9939 5.3044L13.9626 5.2094L13.9939 5.3044ZM13.9338 5.32413L13.9651 5.41913L13.9338 5.32413ZM12.7975 5.24225L12.842 5.15271V5.15271L12.7975 5.24225ZM12.7679 5.22753L12.7234 5.31707V5.31707L12.7679 5.22753ZM12.0253 4.39469L12.1193 4.36068L12.0253 4.39469ZM11.8674 4.25046C11.8718 4.26397 11.8765 4.27742 11.8813 4.2908L12.0694 4.22277C12.0652 4.21105 12.0611 4.19929 12.0572 4.18747L11.8674 4.25046ZM11.7776 3.94544C11.8038 4.04853 11.8343 4.15085 11.8674 4.25046L12.0572 4.18747C12.0254 4.0918 11.9963 3.99405 11.9714 3.8961L11.7776 3.94544ZM11.7435 3.8172L11.7779 3.94648L11.9711 3.89506L11.9368 3.76579L11.7435 3.8172ZM11.7014 3.68093L11.7445 3.82092L11.9357 3.76207L11.8926 3.62209L11.7014 3.68093ZM11.4253 3.19196C11.4747 3.23231 11.5905 3.35335 11.7023 3.68357L11.8917 3.61945C11.7714 3.26378 11.6376 3.10708 11.5517 3.037L11.4253 3.19196ZM11.0986 3.10064C11.3141 3.11001 11.3911 3.16407 11.4253 3.19196L11.5517 3.037C11.4803 2.97869 11.3606 2.91184 11.1073 2.90083L11.0986 3.10064ZM9.96329 3.10003L11.1029 3.10074L11.103 2.90074L9.96341 2.90003L9.96329 3.10003ZM9.86866 3.10547L9.96893 3.09987L9.95777 2.90018L9.85751 2.90578L9.86866 3.10547ZM9.57968 3.19103C9.60711 3.17053 9.67944 3.1232 9.87238 3.1052L9.85379 2.90606C9.62924 2.92702 9.52068 2.98545 9.45997 3.03082L9.57968 3.19103ZM9.36918 3.5079C9.46379 3.29059 9.54562 3.21648 9.57968 3.19103L9.45996 3.03082C9.39222 3.08144 9.29106 3.1863 9.1858 3.42807L9.36918 3.5079ZM9.25997 3.81863C9.29558 3.69423 9.33267 3.59174 9.36918 3.5079L9.1858 3.42807C9.14533 3.52102 9.10539 3.63191 9.06769 3.76359L9.25997 3.81863ZM7.82724 3.37356C7.87044 3.22657 7.91865 3.08876 7.97215 2.96016L7.78749 2.88333C7.73091 3.01935 7.68035 3.16404 7.63536 3.31718L7.82724 3.37356ZM7.97215 2.96016C7.97929 2.94298 7.98653 2.92598 7.99387 2.90913L7.81049 2.8293C7.80272 2.84715 7.79505 2.86517 7.78749 2.88333L7.97215 2.96016ZM7.99387 2.90913C8.16742 2.51049 8.39372 2.20472 8.68179 1.98945C8.96949 1.77447 9.32493 1.64516 9.76448 1.60892L9.74805 1.4096C9.2772 1.44841 8.88441 1.58837 8.56207 1.82924C8.24012 2.06983 7.99457 2.4065 7.81049 2.8293L7.99387 2.90913ZM9.76185 1.6091L9.92752 1.59984L9.91636 1.40016L9.75069 1.40941L9.76185 1.6091ZM9.92188 1.6L11.1304 1.60075L11.1306 1.40075L9.922 1.4L9.92188 1.6ZM11.1274 1.60071C11.6344 1.6164 12.0459 1.76235 12.3736 2.02976C12.7023 2.29795 12.9543 2.69456 13.1303 3.22403L13.3201 3.16095C13.1357 2.6063 12.8659 2.17331 12.5 1.8748C12.1332 1.57551 11.6776 1.41764 11.1336 1.4008L11.1274 1.60071ZM13.1296 3.22191L13.1867 3.4073L13.3778 3.34846L13.3208 3.16307L13.1296 3.22191ZM13.1856 3.40359L13.2298 3.56956L13.423 3.51815L13.3789 3.35217L13.1856 3.40359ZM13.2294 3.56824C13.2462 3.63485 13.2669 3.7053 13.291 3.77803L13.4808 3.71504C13.4581 3.64639 13.4388 3.58072 13.4234 3.51948L13.2294 3.56824ZM13.2919 3.78055L13.3418 3.91846L13.5298 3.85042L13.48 3.71251L13.2919 3.78055ZM13.3913 3.97398L13.4209 3.98869L13.5099 3.80961L13.4803 3.7949L13.3913 3.97398ZM13.4966 3.99415L13.5566 3.97442L13.4942 3.78442L13.4342 3.80415L13.4966 3.99415ZM13.561 3.97287L13.6773 3.92857L13.6061 3.74168L13.4898 3.78597L13.561 3.97287ZM13.6814 3.9269L13.817 3.8682L13.7376 3.68466L13.602 3.74335L13.6814 3.9269ZM13.8193 3.86718C13.8748 3.84149 13.9296 3.81724 13.9838 3.79441L13.9061 3.6101C13.8497 3.63387 13.7928 3.65907 13.7353 3.68569L13.8193 3.86718ZM14.0193 3.77962C14.1407 3.72958 14.2589 3.68682 14.3739 3.65131L14.3149 3.46021C14.1936 3.49768 14.0697 3.54256 13.9431 3.59469L14.0193 3.77962ZM14.3739 3.65131C14.3937 3.6452 14.4134 3.6393 14.433 3.63362L14.3773 3.44153C14.3566 3.44754 14.3358 3.45376 14.3149 3.46021L14.3739 3.65131ZM14.433 3.63363C14.8859 3.50237 15.2884 3.48589 15.651 3.58169C16.0133 3.67739 16.3441 3.88728 16.6506 4.22226L16.7981 4.08725C16.4706 3.72928 16.1079 3.49551 15.7021 3.38832C15.2967 3.28124 14.8566 3.30265 14.3773 3.44153L14.433 3.63363ZM16.6489 4.22035L16.7578 4.34568L16.9087 4.2145L16.7998 4.08917L16.6489 4.22035ZM16.7556 4.34309L17.4692 5.22276L17.6246 5.09675L16.9109 4.21709L16.7556 4.34309ZM17.4674 5.22045C17.7741 5.62202 17.9189 6.03166 17.9162 6.45297C17.9135 6.87559 17.7622 7.31991 17.4592 7.78921L17.6273 7.89769C17.9446 7.40622 18.1132 6.9251 18.1162 6.45425C18.1192 5.98211 17.9557 5.53028 17.6264 5.09906L17.4674 5.22045ZM17.4605 7.78735L17.3515 7.94814L17.5171 8.06033L17.626 7.89954L17.4605 7.78735ZM17.3537 7.94499L17.2518 8.08357L17.4129 8.20206L17.5149 8.06348L17.3537 7.94499ZM17.2526 8.08247C17.2102 8.13851 17.1674 8.20022 17.1249 8.26611L17.293 8.37445C17.3331 8.31222 17.3731 8.25469 17.4121 8.20315L17.2526 8.08247ZM17.124 8.2675L17.0623 8.36676L17.2322 8.47232L17.2939 8.37306L17.124 8.2675ZM17.0611 8.36885L17.0318 8.41853L17.2042 8.51991L17.2335 8.47023L17.0611 8.36885ZM17.02 8.48892L17.0235 8.50622L17.2196 8.46683L17.2161 8.44952L17.02 8.48892ZM17.0667 8.57013L17.1464 8.62247L17.2561 8.45526L17.1764 8.40292L17.0667 8.57013ZM17.1498 8.62459L17.2599 8.69071L17.3629 8.51927L17.2528 8.45314L17.1498 8.62459ZM17.2638 8.69297L17.3973 8.76508L17.4924 8.58913L17.3589 8.51701L17.2638 8.69297ZM17.3996 8.76628C17.994 9.06801 18.4033 9.41206 18.6421 9.80889C18.8795 10.2035 18.9542 10.6603 18.8613 11.2011L19.0584 11.2349C19.158 10.655 19.0795 10.1481 18.8134 9.70579C18.5487 9.26572 18.1043 8.89967 17.4901 8.58794L17.3996 8.76628ZM18.8618 11.1985L18.8296 11.3608L19.0258 11.3997L19.058 11.2375L18.8618 11.1985ZM18.8303 11.3577L18.6179 12.2734L18.8127 12.3186L19.0251 11.4028L18.8303 11.3577ZM18.6179 12.2734C18.5492 12.569 18.49 12.7771 18.3985 12.9578C18.3082 13.1364 18.1836 13.2934 17.9775 13.4801L18.1117 13.6283C18.3307 13.43 18.4727 13.2542 18.577 13.0481C18.6802 12.8442 18.7437 12.6157 18.8127 12.3186L18.6179 12.2734ZM17.9775 13.4801C17.685 13.745 17.3621 13.8945 16.9665 13.9745L17.0061 14.1705C17.432 14.0845 17.789 13.9206 18.1117 13.6283L17.9775 13.4801ZM16.9558 13.9766C16.8229 14.003 16.6814 14.0216 16.5298 14.0341L16.5462 14.2334C16.7038 14.2204 16.8529 14.2009 16.9947 14.1728L16.9558 13.9766ZM16.5315 14.034L16.3401 14.0463L16.353 14.2459L16.5445 14.2335L16.5315 14.034ZM16.3434 14.0462L16.1709 14.0516L16.1772 14.2515L16.3497 14.2461L16.3434 14.0462ZM16.1722 14.0516C16.1546 14.0519 16.1367 14.0524 16.1185 14.0531L16.1263 14.253C16.1431 14.2523 16.1596 14.2519 16.1758 14.2516L16.1722 14.0516ZM16.1122 14.0534C16.0604 14.0555 16.0063 14.0592 15.9507 14.0643L15.969 14.2635C16.0216 14.2586 16.0722 14.2552 16.1204 14.2532L16.1122 14.0534ZM15.9481 14.0646L15.7908 14.0831L15.8142 14.2818L15.9716 14.2632L15.9481 14.0646ZM15.7029 14.1917L15.7143 14.3149L15.9135 14.2964L15.9021 14.1732L15.7029 14.1917ZM15.7149 14.3195L15.7265 14.4024L15.9245 14.3747L15.9129 14.2918L15.7149 14.3195ZM15.7558 14.5641C15.823 14.8797 15.855 15.1682 15.8516 15.4313L16.0515 15.434C16.0552 15.153 16.0211 14.8494 15.9514 14.5224L15.7558 14.5641ZM15.8514 15.443C15.8444 15.8483 15.7531 16.1928 15.5766 16.4852C15.4001 16.7776 15.1349 17.0238 14.7713 17.2268L14.8688 17.4014C15.2569 17.1847 15.5502 16.916 15.7479 16.5885C15.9455 16.261 16.0439 15.8807 16.0513 15.4464L15.8514 15.443ZM14.7735 17.2256L14.6262 17.3029L14.7192 17.48L14.8665 17.4026L14.7735 17.2256ZM14.6292 17.3014L13.6069 17.7951L13.6939 17.9752L14.7162 17.4815L14.6292 17.3014ZM13.6096 17.7939C13.1745 17.9885 12.7647 18.0426 12.3747 17.9675C11.984 17.8922 11.6046 17.6856 11.2342 17.3444L11.0987 17.4915C11.4895 17.8514 11.9013 18.08 12.3369 18.1639C12.7731 18.248 13.2246 18.1852 13.6912 17.9764L13.6096 17.7939ZM12.2503 16.241C12.2258 16.2184 12.2005 16.194 12.1743 16.1676L12.0323 16.3085C12.0605 16.3369 12.088 16.3634 12.1148 16.3881L12.2503 16.241ZM12.1762 16.1696L12.0756 16.0624L11.9297 16.1992L12.0304 16.3065L12.1762 16.1696ZM12.0782 16.0652L11.9901 15.9638L11.8391 16.095L11.9272 16.1964L12.0782 16.0652ZM11.9908 15.9646C11.9197 15.881 11.845 15.8 11.769 15.7229L11.6265 15.8632C11.6994 15.9373 11.7708 16.0147 11.8384 16.0942L11.9908 15.9646ZM11.7684 15.7223L11.7509 15.7048L11.6095 15.8462L11.627 15.8637L11.7684 15.7223ZM11.7504 15.7042L11.666 15.6213L11.5258 15.7639L11.6101 15.8468L11.7504 15.7042ZM11.666 15.6213C11.6535 15.609 11.6408 15.5969 11.6279 15.585L11.4924 15.7322C11.5037 15.7426 11.5149 15.7531 11.5258 15.7639L11.666 15.6213ZM11.6279 15.585L11.5847 15.5452L11.4492 15.6924L11.4924 15.7322L11.6279 15.585ZM11.5847 15.5452C10.966 14.9757 10.012 14.9822 9.40124 15.5602L9.53871 15.7055C10.0732 15.1997 10.9079 15.194 11.4492 15.6924L11.5847 15.5452ZM9.40124 15.5602L9.32149 15.6357L9.45895 15.7809L9.53871 15.7055L9.40124 15.5602ZM9.32149 15.6357C9.30636 15.65 9.29153 15.6646 9.27698 15.6795L9.42001 15.8193C9.43274 15.8062 9.44573 15.7935 9.45896 15.7809L9.32149 15.6357ZM9.27698 15.6795L9.18562 15.773L9.32865 15.9127L9.42001 15.8193L9.27698 15.6795ZM9.18562 15.773C9.16837 15.7906 9.15154 15.8086 9.13513 15.8271L9.28447 15.9601C9.29883 15.944 9.31356 15.9282 9.32865 15.9127L9.18562 15.773ZM9.13513 15.8271L9.03275 15.942L9.18209 16.075L9.28447 15.9601L9.13513 15.8271ZM9.03275 15.942C9.02344 15.9524 9.01426 15.963 9.00523 15.9737L9.15801 16.1028C9.16591 16.0934 9.17394 16.0842 9.18209 16.075L9.03275 15.942ZM9.00523 15.9737C8.69762 16.3379 8.49417 16.4477 8.40322 16.4795L8.46937 16.6683C8.60572 16.6205 8.83697 16.4828 9.15801 16.1028L9.00523 15.9737ZM8.40321 16.4795C8.37448 16.4896 8.341 16.4987 8.29072 16.4973C8.23879 16.496 8.16428 16.4833 8.05564 16.4426L7.98548 16.6299C8.109 16.6762 8.20581 16.6952 8.28543 16.6973C8.36671 16.6994 8.42502 16.6838 8.46937 16.6683L8.40321 16.4795ZM8.0591 16.444L7.96559 16.4049L7.88851 16.5895L7.98202 16.6285L8.0591 16.444ZM7.97057 16.4072L7.10648 15.9895L7.01944 16.1696L7.88353 16.5872L7.97057 16.4072ZM7.10831 15.9904L6.8702 15.8692L6.77949 16.0475L7.0176 16.1686L7.10831 15.9904ZM6.87318 15.8708C6.81686 15.8397 6.7865 15.8199 6.77092 15.8088L6.65521 15.972C6.67853 15.9885 6.71562 16.0123 6.7765 16.0459L6.87318 15.8708ZM6.77092 15.8088C6.763 15.8032 6.75952 15.8003 6.75907 15.7999L6.62995 15.9526C6.63505 15.9569 6.64305 15.9633 6.65521 15.972L6.77092 15.8088ZM6.75908 15.7999C6.75897 15.7998 6.75922 15.8 6.75979 15.8006C6.76007 15.8008 6.76043 15.8012 6.76087 15.8016C6.76109 15.8018 6.76132 15.802 6.76158 15.8023C6.7617 15.8024 6.76183 15.8025 6.76197 15.8027C6.76204 15.8027 6.76211 15.8028 6.76218 15.8029C6.76221 15.8029 6.76225 15.803 6.76228 15.803C6.7623 15.803 6.76232 15.803 6.76233 15.8031C6.76234 15.8031 6.76235 15.8031 6.76236 15.8031C6.76237 15.8031 6.76237 15.8031 6.76237 15.8031C6.76238 15.8031 6.76239 15.8031 6.69077 15.8729C6.61915 15.9427 6.61916 15.9427 6.61917 15.9427C6.61917 15.9427 6.61918 15.9427 6.61918 15.9427C6.61919 15.9427 6.6192 15.9427 6.61921 15.9428C6.61923 15.9428 6.61925 15.9428 6.61926 15.9428C6.6193 15.9428 6.61934 15.9429 6.61937 15.9429C6.61945 15.943 6.61952 15.9431 6.6196 15.9432C6.61975 15.9433 6.61991 15.9435 6.62008 15.9436C6.6204 15.944 6.62075 15.9443 6.62111 15.9447C6.62185 15.9454 6.62266 15.9461 6.62355 15.947C6.62534 15.9486 6.62746 15.9505 6.62995 15.9526L6.75908 15.7999ZM6.69077 15.8729C6.7618 15.8025 6.76181 15.8025 6.76182 15.8025C6.76182 15.8025 6.76183 15.8025 6.76183 15.8025C6.76184 15.8026 6.76185 15.8026 6.76186 15.8026C6.76188 15.8026 6.7619 15.8026 6.76193 15.8026C6.76197 15.8027 6.76201 15.8027 6.76205 15.8028C6.76213 15.8028 6.76221 15.8029 6.76229 15.803C6.76245 15.8032 6.7626 15.8033 6.76274 15.8035C6.76304 15.8038 6.76331 15.8041 6.76356 15.8043C6.76406 15.8049 6.76447 15.8053 6.7648 15.8057C6.76547 15.8064 6.7658 15.8069 6.76581 15.8069L6.60982 15.932C6.61179 15.9345 6.6136 15.9366 6.61525 15.9385C6.61607 15.9394 6.61686 15.9403 6.61761 15.9411C6.61798 15.9415 6.61835 15.9419 6.6187 15.9422C6.61888 15.9424 6.61906 15.9426 6.61923 15.9428C6.61932 15.9429 6.6194 15.9429 6.61949 15.943C6.61953 15.9431 6.61957 15.9431 6.61962 15.9432C6.61964 15.9432 6.61966 15.9432 6.61968 15.9432C6.61969 15.9432 6.6197 15.9433 6.61971 15.9433C6.61972 15.9433 6.61972 15.9433 6.61973 15.9433C6.61974 15.9433 6.61974 15.9433 6.69077 15.8729ZM6.7658 15.8069C6.76578 15.8068 6.76329 15.8037 6.75837 15.7963L6.59168 15.9068C6.59974 15.919 6.60578 15.927 6.60982 15.932L6.7658 15.8069ZM6.75837 15.7963C6.74819 15.781 6.72706 15.7463 6.69536 15.6797L6.51478 15.7657C6.54961 15.8388 6.57524 15.882 6.59168 15.9068L6.75837 15.7963ZM6.69536 15.6797C6.6574 15.6 6.63794 15.5272 6.64197 15.3862L6.44205 15.3805C6.43721 15.5499 6.46187 15.6545 6.51478 15.7657L6.69536 15.6797ZM6.64197 15.3862C6.64437 15.3021 6.65571 15.1901 6.68354 15.0358L6.48671 15.0003C6.45764 15.1615 6.44481 15.2838 6.44205 15.3805L6.64197 15.3862ZM6.68321 15.0375L6.7177 14.8638L6.52153 14.8249L6.48704 14.9985L6.68321 15.0375ZM6.71748 14.8649C6.7395 14.76 6.75732 14.6539 6.77158 14.5492L6.5734 14.5222C6.55971 14.6228 6.54266 14.7242 6.52174 14.8238L6.71748 14.8649ZM6.77158 14.5492C6.77361 14.5342 6.77543 14.5193 6.77703 14.5043L6.57818 14.483C6.57677 14.4961 6.57518 14.5091 6.5734 14.5222L6.77158 14.5492ZM6.77703 14.5043L6.79297 14.3559L6.59412 14.3346L6.57818 14.483L6.77703 14.5043ZM6.79297 14.3559C6.84483 13.8731 6.67461 13.3928 6.33025 13.0504L6.18923 13.1923C6.49055 13.4919 6.63949 13.9121 6.59412 14.3346L6.79297 14.3559ZM6.33026 13.0505L6.32678 13.047L6.18575 13.1888L6.18923 13.1923L6.33026 13.0505ZM6.32677 13.047C6.0787 12.8003 5.75663 12.6418 5.40986 12.5956L5.38346 12.7938C5.68688 12.8342 5.96869 12.973 6.18575 13.1888L6.32677 13.047ZM5.40986 12.5956L5.31966 12.5836L5.29325 12.7818L5.38346 12.7938L5.40986 12.5956ZM5.31965 12.5836C5.2967 12.5805 5.27369 12.578 5.25063 12.5759L5.23285 12.7751C5.25303 12.7769 5.27317 12.7792 5.29326 12.7818L5.31965 12.5836ZM5.25063 12.5759L5.12316 12.5645L5.10539 12.7637L5.23285 12.7751L5.25063 12.5759ZM5.12317 12.5645C5.09908 12.5624 5.07495 12.5608 5.05079 12.5597L5.04207 12.7595C5.0632 12.7605 5.08432 12.7619 5.10539 12.7637L5.12317 12.5645ZM5.05079 12.5597L4.89949 12.5531L4.89077 12.7529L5.04206 12.7595L5.05079 12.5597ZM4.8995 12.5531C4.88582 12.5525 4.87213 12.5521 4.85845 12.5518L4.85485 12.7518C4.86683 12.752 4.8788 12.7524 4.89076 12.7529L4.8995 12.5531ZM4.85845 12.5518C4.62952 12.5477 4.45701 12.525 4.32966 12.4954L4.28441 12.6902C4.42805 12.7236 4.61488 12.7475 4.85485 12.7518L4.85845 12.5518ZM4.32966 12.4954C4.1291 12.4488 4.05573 12.3899 4.02935 12.3651L3.89235 12.5108C3.94882 12.5639 4.05584 12.6371 4.28441 12.6902L4.32966 12.4954ZM4.02935 12.3651C4.00401 12.3412 3.94359 12.2753 3.88699 12.0898L3.69569 12.1482C3.7608 12.3616 3.83775 12.4594 3.89235 12.5108L4.02935 12.3651ZM3.88797 12.0932L3.85766 11.9794L3.66439 12.0309L3.6947 12.1447L3.88797 12.0932ZM3.85848 11.9827L3.61631 10.931L3.42141 10.9759L3.66358 12.0276L3.85848 11.9827ZM3.61716 10.9351C3.57877 10.7292 3.61365 10.6473 3.6318 10.6109L3.45279 10.5217C3.41307 10.6014 3.37513 10.7282 3.42055 10.9718L3.61716 10.9351ZM3.6318 10.6109C3.65941 10.5555 3.752 10.4151 4.05302 10.2309L3.94864 10.0603C3.62495 10.2584 3.50145 10.424 3.45279 10.5217L3.6318 10.6109ZM4.05066 10.2323L4.17857 10.1588L4.07891 9.98537L3.951 10.0589L4.05066 10.2323ZM4.17521 10.1606L4.29445 10.098L4.20151 9.92094L4.08227 9.98352L4.17521 10.1606ZM4.2935 10.0985C4.38952 10.0494 4.48387 9.99629 4.57496 9.94118L4.47142 9.77007C4.3839 9.82302 4.29372 9.87379 4.20246 9.92045L4.2935 10.0985ZM4.57496 9.94118C4.58953 9.93237 4.60396 9.92332 4.61824 9.91404L4.50929 9.74632C4.49679 9.75444 4.48417 9.76235 4.47142 9.77007L4.57496 9.94118ZM4.61824 9.91404L4.7529 9.82657L4.64395 9.65885L4.50929 9.74632L4.61824 9.91404ZM4.7529 9.82657C5.10901 9.59525 5.35855 9.23185 5.44657 8.81643L5.25091 8.77498C5.1739 9.13847 4.95555 9.45644 4.64395 9.65885L4.7529 9.82657ZM5.44657 8.81644L5.45005 8.8L5.2544 8.75853L5.25092 8.77497L5.44657 8.81644ZM5.45006 8.79999C5.53241 8.41128 5.46719 8.00583 5.26708 7.66256L5.0943 7.76328C5.26939 8.06365 5.32646 8.41841 5.2544 8.75854L5.45006 8.79999ZM5.26708 7.66256L5.21266 7.5692L5.03987 7.66992L5.0943 7.76329L5.26708 7.66256ZM5.21266 7.5692C5.19978 7.5471 5.18637 7.52532 5.17244 7.50387L5.00468 7.61276C5.01687 7.63153 5.0286 7.65059 5.03987 7.66992L5.21266 7.5692ZM5.17244 7.50387L5.10213 7.39554L4.93437 7.50443L5.00468 7.61276L5.17244 7.50387ZM5.10213 7.39554C5.08878 7.37498 5.07497 7.35473 5.06069 7.3348L4.89811 7.45129C4.91061 7.46872 4.9227 7.48644 4.93437 7.50443L5.10213 7.39554ZM5.06069 7.3348L4.97196 7.21095L4.80938 7.32743L4.89811 7.45129L5.06069 7.3348ZM4.97196 7.21095C4.96386 7.19965 4.95562 7.18846 4.94723 7.17738L4.78775 7.29806C4.79509 7.30776 4.8023 7.31755 4.80938 7.32743L4.97196 7.21095ZM4.94723 7.17738C4.64668 6.78017 4.59568 6.55773 4.58864 6.47567L4.38937 6.49276C4.40073 6.62516 4.47364 6.88294 4.78775 7.29806L4.94723 7.17738ZM4.58864 6.47567C4.58649 6.45054 4.58557 6.41838 4.5999 6.36985C4.61479 6.31944 4.64739 6.24734 4.71877 6.14648L4.55552 6.03094C4.47515 6.14451 4.43078 6.23637 4.40809 6.31321C4.38484 6.39194 4.38574 6.45032 4.38937 6.49276L4.58864 6.47567ZM4.71667 6.14933L4.7884 6.05524L4.62934 5.93399L4.55762 6.02809L4.71667 6.14933ZM4.78631 6.05789L5.47068 5.22035L5.31581 5.0938L4.63144 5.93134L4.78631 6.05789ZM5.46798 5.22352C5.60896 5.06496 5.6987 5.03914 5.74394 5.02988L5.70382 4.83394C5.61156 4.85283 5.4848 4.9036 5.31852 5.09063L5.46798 5.22352ZM5.74394 5.02988C5.80939 5.01647 5.98032 5.00363 6.31175 5.12622L6.38113 4.93864C6.02479 4.80684 5.81511 4.81115 5.70382 4.83394L5.74394 5.02988ZM6.30919 5.12523L6.44628 5.18025L6.52078 4.99465L6.38369 4.93962L6.30919 5.12523ZM6.44275 5.17876L6.56578 5.2337L6.64734 5.05109L6.5243 4.99614L6.44275 5.17876ZM6.56481 5.23326C6.66013 5.27706 6.75749 5.31724 6.85442 5.35382L6.92505 5.16671C6.83193 5.13156 6.73891 5.09315 6.64831 5.05153L6.56481 5.23326ZM6.85442 5.35382C6.86626 5.3583 6.87816 5.36263 6.89012 5.36682L6.95628 5.17808C6.94583 5.17442 6.93541 5.17063 6.92505 5.16671L6.85442 5.35382ZM6.89011 5.36682L7.00809 5.40818L7.07426 5.21944L6.95629 5.17808L6.89011 5.36682ZM7.00809 5.40818C7.40378 5.54691 7.83811 5.52476 8.21764 5.34651L8.13261 5.16548C7.80053 5.32145 7.42049 5.34083 7.07426 5.21944L7.00809 5.40818ZM8.21764 5.34651L8.24896 5.3318L8.16394 5.15077L8.13261 5.16548L8.21764 5.34651ZM8.24896 5.3318C8.62398 5.15566 8.91606 4.84091 9.06372 4.45379L8.87685 4.38251C8.74765 4.72124 8.49208 4.99665 8.16394 5.15077L8.24896 5.3318ZM9.06372 4.45379L9.09298 4.37708L8.90611 4.3058L8.87685 4.38251L9.06372 4.45379ZM9.09298 4.37708C9.10189 4.35369 9.11026 4.33011 9.11807 4.30634L8.92807 4.2439C8.92123 4.26471 8.91391 4.28534 8.90611 4.3058L9.09298 4.37708ZM9.11807 4.30634L9.1573 4.18696L8.96729 4.12453L8.92807 4.2439L9.11807 4.30634ZM9.1573 4.18696C9.16488 4.16389 9.17193 4.14066 9.17846 4.11727L8.98581 4.06355C8.9801 4.08401 8.97393 4.10434 8.96729 4.12453L9.1573 4.18696ZM9.17846 4.11727L9.21851 3.97364L9.02586 3.91992L8.98581 4.06355L9.17846 4.11727ZM9.21851 3.97364C9.22219 3.96043 9.2257 3.94719 9.22904 3.9339L9.03507 3.88515C9.03215 3.89678 9.02908 3.90837 9.02586 3.91992L9.21851 3.97364ZM9.22904 3.9339C9.23914 3.89374 9.24946 3.85533 9.25996 3.81863L9.06769 3.76358C9.05656 3.80246 9.04568 3.84296 9.03507 3.88515L9.22904 3.9339ZM7.77429 3.56824C7.7882 3.51293 7.80273 3.45877 7.8179 3.40578L7.62562 3.35074C7.60983 3.4059 7.59474 3.46215 7.58033 3.51948L7.77429 3.56824ZM7.73358 3.71435L7.77364 3.57072L7.58099 3.517L7.54093 3.66063L7.73358 3.71435ZM7.69303 3.83808L7.73226 3.71871L7.54226 3.65627L7.50303 3.77565L7.69303 3.83808ZM7.66221 3.91921L7.69147 3.8425L7.5046 3.77123L7.47534 3.84794L7.66221 3.91921ZM7.57996 3.9888L7.61128 3.97409L7.52626 3.79306L7.49494 3.80777L7.57996 3.9888ZM7.38639 3.95129L7.50436 3.99266L7.57054 3.80392L7.45256 3.76256L7.38639 3.95129ZM7.1844 3.86718C7.24611 3.89575 7.3132 3.9237 7.38416 3.95048L7.45479 3.76337C7.38778 3.73807 7.32521 3.71198 7.26843 3.68569L7.1844 3.86718ZM7.02816 3.79741L7.18564 3.86774L7.26719 3.68512L7.10971 3.61479L7.02816 3.79741ZM6.85091 3.72635L7.03169 3.79891L7.10619 3.6133L6.92541 3.54074L6.85091 3.72635ZM4.3236 4.25348C4.65477 3.87165 5.0277 3.64542 5.44302 3.56037C5.8596 3.47506 6.32832 3.52989 6.85297 3.72715L6.92335 3.53994C6.37413 3.33345 5.8662 3.26956 5.4029 3.36444C4.93833 3.45957 4.52814 3.71242 4.17251 4.12243L4.3236 4.25348ZM3.60873 5.12839L4.32549 4.25123L4.17062 4.12468L3.45386 5.00184L3.60873 5.12839ZM3.51021 5.25774L3.61083 5.12574L3.45177 5.0045L3.35115 5.1365L3.51021 5.25774ZM3.47055 7.66899C3.20707 7.2275 3.08143 6.8154 3.0877 6.42137C3.09396 6.02813 3.23175 5.64325 3.51174 5.25568L3.34962 5.13856C3.05023 5.55298 2.89475 5.97679 2.88773 6.41819C2.88071 6.85879 3.02176 7.30725 3.29881 7.77149L3.47055 7.66899ZM3.64176 7.93254C3.57938 7.84357 3.52232 7.75574 3.47055 7.66899L3.29881 7.77149C3.35328 7.86275 3.41303 7.95468 3.47799 8.04735L3.64176 7.93254ZM3.75107 8.08247C3.71298 8.03214 3.67655 7.98216 3.64176 7.93254L3.47799 8.04735C3.51423 8.09904 3.5521 8.15097 3.59158 8.20315L3.75107 8.08247ZM3.84135 8.20842L3.75262 8.08457L3.59004 8.20106L3.67878 8.32491L3.84135 8.20842ZM3.91426 8.32055L3.84394 8.21222L3.67619 8.32111L3.7465 8.42944L3.91426 8.32055ZM3.97119 8.41799L3.91677 8.32463L3.74398 8.42535L3.79841 8.51872L3.97119 8.41799ZM3.97915 8.50552L3.98263 8.48908L3.78697 8.44763L3.78349 8.46407L3.97915 8.50552ZM3.80113 8.65613L3.93579 8.56866L3.82685 8.40093L3.69218 8.48841L3.80113 8.65613ZM3.60416 8.76628C3.66648 8.73464 3.73172 8.69819 3.79843 8.65782L3.69489 8.48671C3.63187 8.52484 3.57099 8.55883 3.51364 8.58794L3.60416 8.76628ZM3.45269 8.84578L3.60537 8.76565L3.51243 8.58856L3.35975 8.66868L3.45269 8.84578ZM3.28727 8.94094L3.45605 8.84393L3.35639 8.67053L3.18761 8.76754L3.28727 8.94094ZM2.14935 11.2452C2.05075 10.7507 2.10112 10.3194 2.28928 9.94182C2.47803 9.56307 2.80989 9.22956 3.28917 8.93982L3.1857 8.76866C2.68396 9.07198 2.32047 9.43083 2.11027 9.85261C1.89948 10.2756 1.84728 10.753 1.95321 11.2843L2.14935 11.2452ZM2.40244 12.3441L2.14873 11.2423L1.95383 11.2872L2.20754 12.389L2.40244 12.3441ZM2.44426 12.5009L2.40162 12.3408L2.20836 12.3923L2.25099 12.5524L2.44426 12.5009ZM3.97934 13.9539C3.57432 13.8582 3.25022 13.6927 2.99845 13.4547C2.74669 13.2167 2.56207 12.9015 2.44356 12.4984L2.25169 12.5549C2.37831 12.9855 2.57918 13.3336 2.86106 13.6C3.14293 13.8664 3.50064 14.0463 3.93336 14.1486L3.97934 13.9539ZM4.83147 14.0516C4.51972 14.046 4.23983 14.0145 3.99027 13.9565L3.94502 14.1513C4.21088 14.2131 4.50508 14.2458 4.82787 14.2516L4.83147 14.0516ZM5.11732 14.07L4.98986 14.0586L4.97208 14.2578L5.09954 14.2692L5.11732 14.07ZM5.21184 14.0825L5.12163 14.0704L5.09523 14.2687L5.18544 14.2807L5.21184 14.0825ZM5.27262 14.1141L5.26914 14.1107L5.12814 14.2525L5.13163 14.256L5.27262 14.1141ZM5.28561 14.3441L5.30155 14.1957L5.10269 14.1744L5.08676 14.3228L5.28561 14.3441ZM5.24892 14.5594C5.26293 14.493 5.2751 14.4217 5.28527 14.3469L5.0871 14.32C5.0775 14.3905 5.06611 14.457 5.05323 14.5181L5.24892 14.5594ZM5.24794 14.564L5.2489 14.5595L5.05325 14.518L5.0523 14.5225L5.24794 14.564ZM5.20956 14.7573L5.2482 14.5627L5.05203 14.5238L5.01339 14.7184L5.20956 14.7573ZM5.14258 15.3433C5.14778 15.1612 5.17115 14.9675 5.20984 14.7558L5.0131 14.7199C4.97314 14.9385 4.94823 15.1426 4.94266 15.3376L5.14258 15.3433ZM5.34104 16.3245C5.19266 16.0129 5.13417 15.7053 5.14219 15.3585L4.94224 15.3538C4.93357 15.7288 4.99733 16.0679 5.16046 16.4105L5.34104 16.3245ZM6.17229 17.1972C5.97 17.0873 5.81776 16.9828 5.68905 16.8509C5.56051 16.7193 5.45134 16.5562 5.34104 16.3245L5.16046 16.4105C5.2773 16.6559 5.39794 16.8391 5.54595 16.9907C5.69381 17.1421 5.8649 17.2578 6.07683 17.3729L6.17229 17.1972ZM6.44167 17.3342L6.16992 17.1959L6.07921 17.3742L6.35096 17.5125L6.44167 17.3342ZM7.35466 17.7755L6.43984 17.3333L6.3528 17.5134L7.26762 17.9556L7.35466 17.7755ZM7.50241 17.8371L7.34968 17.7733L7.2726 17.9578L7.42533 18.0216L7.50241 17.8371ZM10.1511 16.9417C9.74339 17.4243 9.33143 17.7437 8.89939 17.8951C8.46994 18.0456 8.01089 18.0337 7.49995 17.8361L7.4278 18.0226C7.97704 18.2351 8.48542 18.2521 8.96555 18.0838C9.44308 17.9165 9.88284 17.5692 10.3039 17.0708L10.1511 16.9417ZM10.2552 16.8248L10.1528 16.9397L10.3022 17.0727L10.4045 16.9578L10.2552 16.8248ZM10.3497 16.7279L10.2584 16.8214L10.4014 16.9612L10.4928 16.8677L10.3497 16.7279ZM10.4323 16.6497L10.3525 16.7252L10.49 16.8704L10.5697 16.795L10.4323 16.6497ZM10.6119 16.6885L10.5687 16.6488L10.4333 16.7959L10.4765 16.8357L10.6119 16.6885ZM10.6986 16.7737L10.6143 16.6908L10.4741 16.8334L10.5584 16.9163L10.6986 16.7737ZM10.8526 16.9417C10.8068 16.8874 10.7554 16.8314 10.6998 16.7749L10.5572 16.9152C10.6098 16.9686 10.6577 17.0209 10.6998 17.0708L10.8526 16.9417ZM11.095 17.2095L10.962 17.0677L10.8161 17.2046L10.9492 17.3463L11.095 17.2095ZM11.1687 17.2826C11.1436 17.2583 11.1185 17.2334 11.0935 17.2079L10.9507 17.3479C10.9769 17.3747 11.0033 17.4008 11.0297 17.4264L11.1687 17.2826ZM11.2342 17.3444C11.2123 17.3242 11.1905 17.3036 11.1687 17.2826L11.0297 17.4264C11.0526 17.4485 11.0756 17.4702 11.0987 17.4915L11.2342 17.3444ZM12.9815 16.4315C12.7937 16.5128 12.7007 16.5027 12.6585 16.4946L12.6206 16.691C12.7072 16.7077 12.841 16.7102 13.061 16.615L12.9815 16.4315ZM12.6585 16.4946C12.6039 16.4841 12.4682 16.4416 12.2503 16.241L12.1148 16.3881C12.3533 16.6077 12.5215 16.6719 12.6206 16.691L12.6585 16.4946ZM13.9542 15.9616L12.9778 16.4332L13.0647 16.6133L14.0412 16.1417L13.9542 15.9616ZM14.0564 15.9079L13.9512 15.9631L14.0442 16.1402L14.1494 16.085L14.0564 15.9079ZM14.2927 15.7095C14.2753 15.7387 14.2232 15.8126 14.0533 15.9096L14.1525 16.0833C14.3471 15.9721 14.4264 15.8756 14.4643 15.8124L14.2927 15.7095ZM14.3517 15.4117C14.3492 15.6032 14.3101 15.6806 14.2927 15.7095L14.4643 15.8124C14.5027 15.7484 14.5488 15.6351 14.5517 15.4143L14.3517 15.4117ZM14.2887 14.8766C14.3378 15.1073 14.3534 15.2824 14.3517 15.4117L14.5517 15.4143C14.5536 15.2672 14.5359 15.0769 14.4843 14.835L14.2887 14.8766ZM14.2793 14.829C14.2822 14.845 14.2853 14.8608 14.2887 14.8766L14.4843 14.835C14.4814 14.8211 14.4786 14.8072 14.4761 14.7933L14.2793 14.829ZM14.2512 14.6744L14.2793 14.829L14.4761 14.7933L14.448 14.6386L14.2512 14.6744ZM14.241 14.6105C14.244 14.6319 14.2474 14.6532 14.2512 14.6744L14.448 14.6387C14.4447 14.6201 14.4417 14.6014 14.439 14.5827L14.241 14.6105ZM14.2294 14.5276L14.241 14.6105L14.439 14.5827L14.4274 14.4998L14.2294 14.5276ZM14.2208 14.4536C14.2231 14.4783 14.2259 14.503 14.2294 14.5276L14.4274 14.4998C14.4244 14.4783 14.4219 14.4568 14.4199 14.4351L14.2208 14.4536ZM14.2093 14.3304L14.2208 14.4536L14.4199 14.4351L14.4085 14.3119L14.2093 14.3304ZM15.615 12.5935C14.7528 12.6952 14.129 13.4659 14.2093 14.3304L14.4085 14.3119C14.3382 13.5555 14.884 12.8811 15.6384 12.7921L15.615 12.5935ZM15.7724 12.5749L15.615 12.5935L15.6384 12.7921L15.7958 12.7735L15.7724 12.5749ZM15.8128 12.5707C15.7993 12.5719 15.7858 12.5733 15.7724 12.5749L15.7958 12.7735C15.8076 12.7721 15.8194 12.7709 15.8312 12.7698L15.8128 12.5707ZM16.0606 12.5543C15.9778 12.5575 15.8949 12.5631 15.8128 12.5707L15.8312 12.7698C15.91 12.7625 15.9894 12.7572 16.0683 12.7541L16.0606 12.5543ZM16.2713 12.5477L16.1325 12.5521L16.1388 12.752L16.2776 12.7476L16.2713 12.5477ZM16.4205 12.538L16.268 12.5479L16.2809 12.7475L16.4334 12.7376L16.4205 12.538ZM16.6641 12.5053C16.5998 12.518 16.5196 12.5295 16.4184 12.5382L16.4355 12.7374C16.5425 12.7283 16.6302 12.7159 16.703 12.7014L16.6641 12.5053ZM16.9706 12.3683C16.9044 12.4282 16.8371 12.471 16.6641 12.5053L16.703 12.7014C16.9066 12.6611 17.0083 12.6039 17.1048 12.5165L16.9706 12.3683ZM17.062 12.2765C17.0552 12.285 17.0309 12.3136 16.9706 12.3683L17.1048 12.5165C17.1709 12.4567 17.2029 12.4204 17.2179 12.4018L17.062 12.2765ZM17.1494 12.3257C17.0558 12.2905 17.0558 12.2904 17.0558 12.2904C17.0558 12.2904 17.0558 12.2903 17.0559 12.2903C17.0559 12.2902 17.0559 12.2901 17.0559 12.2901C17.056 12.2899 17.056 12.2898 17.0561 12.2897C17.0562 12.2894 17.0563 12.2891 17.0564 12.2888C17.0566 12.2883 17.0568 12.2878 17.057 12.2873C17.0574 12.2863 17.0579 12.2854 17.0582 12.2845C17.059 12.2828 17.0598 12.2813 17.0604 12.2801C17.0617 12.2776 17.0628 12.2759 17.0634 12.2749C17.0645 12.2731 17.0645 12.2735 17.062 12.2765L17.2179 12.4018C17.2236 12.3947 17.2283 12.3883 17.2321 12.3823C17.234 12.3792 17.2359 12.376 17.2377 12.3726C17.2386 12.3709 17.2395 12.3691 17.2404 12.3672C17.2408 12.3662 17.2413 12.3652 17.2417 12.3641C17.2419 12.3636 17.2421 12.3631 17.2423 12.3625C17.2424 12.3623 17.2426 12.362 17.2427 12.3617C17.2427 12.3616 17.2428 12.3614 17.2428 12.3613C17.2429 12.3612 17.2429 12.3611 17.2429 12.3611C17.2429 12.361 17.2429 12.361 17.2429 12.361C17.243 12.3609 17.243 12.3609 17.1494 12.3257ZM17.1566 11.9345C17.0905 12.2196 17.0635 12.2739 17.0602 12.2805L17.2386 12.3708C17.2539 12.3405 17.2852 12.2651 17.3515 11.9798L17.1566 11.9345ZM17.3636 11.0421L17.1566 11.9346L17.3515 11.9797L17.5584 11.0873L17.3636 11.0421ZM17.3861 10.9286L17.3629 11.0453L17.5591 11.0842L17.5823 10.9676L17.3861 10.9286ZM17.3567 10.5821C17.3702 10.6045 17.3852 10.6332 17.3936 10.6827C17.4024 10.7341 17.4049 10.8121 17.3855 10.9321L17.5829 10.964C17.6048 10.8286 17.6042 10.7276 17.5908 10.649C17.577 10.5684 17.5505 10.5162 17.5281 10.479L17.3567 10.5821ZM16.7207 10.1039C17.1672 10.3305 17.3131 10.5095 17.3567 10.5821L17.5281 10.479C17.4585 10.3633 17.2776 10.1622 16.8112 9.92551L16.7207 10.1039ZM16.6841 10.0847C16.6962 10.0913 16.7084 10.0976 16.7207 10.1039L16.8112 9.92551C16.8005 9.92006 16.7898 9.91448 16.7792 9.90876L16.6841 10.0847ZM16.5507 10.0126L16.6841 10.0847L16.7792 9.90876L16.6458 9.83665L16.5507 10.0126ZM16.4875 9.97658C16.5083 9.98906 16.5294 10.0011 16.5507 10.0126L16.6458 9.83665C16.6271 9.82656 16.6087 9.81605 16.5905 9.80513L16.4875 9.97658ZM16.3774 9.91045L16.4875 9.97658L16.5905 9.80513L16.4804 9.739L16.3774 9.91045ZM16.3234 9.87655C16.3412 9.88821 16.3592 9.89951 16.3774 9.91045L16.4804 9.739C16.4645 9.72943 16.4487 9.71954 16.4332 9.70934L16.3234 9.87655ZM16.2437 9.82421L16.3234 9.87655L16.4332 9.70934L16.3534 9.657L16.2437 9.82421ZM15.5529 8.80172C15.6372 9.22121 15.886 9.58946 16.2437 9.82421L16.3534 9.657C16.0404 9.4516 15.8227 9.12937 15.749 8.76232L15.5529 8.80172ZM15.5494 8.78441L15.5529 8.80172L15.749 8.76232L15.7455 8.74501L15.5494 8.78441ZM15.7389 7.65814C15.5393 7.99747 15.4719 8.39846 15.5494 8.78441L15.7455 8.74501C15.6776 8.40731 15.7366 8.05644 15.9113 7.75953L15.7389 7.65814ZM15.7681 7.60846L15.7389 7.65814L15.9113 7.75953L15.9405 7.70985L15.7681 7.60846ZM15.85 7.47575L15.7883 7.57501L15.9582 7.68057L16.0199 7.58131L15.85 7.47575ZM15.8636 7.45424L15.8504 7.47505L16.0194 7.58201L16.0326 7.5612L15.8636 7.45424ZM16.0494 7.18682C15.984 7.27369 15.9221 7.36348 15.864 7.45355L16.0322 7.56189C16.0879 7.47536 16.1471 7.38958 16.2092 7.30702L16.0494 7.18682ZM16.1282 7.07962L16.0487 7.18768L16.2098 7.30617L16.2893 7.19811L16.1282 7.07962ZM16.2083 6.96122L16.126 7.08277L16.2915 7.19496L16.3739 7.07341L16.2083 6.96122ZM16.4162 6.44335C16.4158 6.5036 16.3952 6.66828 16.2068 6.96354L16.3754 7.0711C16.5781 6.75331 16.6155 6.55218 16.6162 6.44463L16.4162 6.44335ZM16.2855 6.14443C16.412 6.31433 16.4165 6.40377 16.4162 6.44335L16.6162 6.44463C16.6168 6.35658 16.5952 6.22553 16.446 6.02501L16.2855 6.14443ZM15.6067 5.30779L16.2881 6.14772L16.4434 6.02172L15.762 5.18179L15.6067 5.30779ZM15.5312 5.22105L15.6089 5.31038L15.7598 5.1792L15.6822 5.08987L15.5312 5.22105ZM15.2679 5.03194C15.3036 5.04136 15.3912 5.07115 15.5336 5.22369L15.6798 5.08723C15.5159 4.91157 15.3965 4.85906 15.319 4.83858L15.2679 5.03194ZM14.8505 5.07435C15.1059 5.00033 15.2254 5.02072 15.2679 5.03194L15.319 4.83858C15.2341 4.81614 15.0769 4.80051 14.7948 4.88225L14.8505 5.07435ZM14.5662 5.17671C14.6737 5.13143 14.7682 5.09821 14.8505 5.07435L14.7948 4.88225C14.7042 4.90852 14.6024 4.94446 14.4886 4.99241L14.5662 5.17671ZM14.4496 5.22835C14.4899 5.20968 14.5287 5.1925 14.5662 5.17671L14.4886 4.99241C14.4489 5.00913 14.4079 5.02726 14.3655 5.04686L14.4496 5.22835ZM14.4128 5.24479C14.4251 5.23947 14.4374 5.23398 14.4496 5.22835L14.3655 5.04686C14.3549 5.05179 14.3442 5.05659 14.3334 5.06125L14.4128 5.24479ZM14.2772 5.30349L14.4128 5.2448L14.3334 5.06125L14.1978 5.11995L14.2772 5.30349ZM14.2113 5.3303C14.2335 5.32185 14.2555 5.31291 14.2772 5.30349L14.1978 5.11995C14.1787 5.12819 14.1595 5.13601 14.1401 5.1434L14.2113 5.3303ZM14.095 5.37459L14.2113 5.3303L14.1401 5.1434L14.0238 5.18769L14.095 5.37459ZM14.0251 5.3994C14.0486 5.39167 14.0719 5.3834 14.095 5.37459L14.0238 5.18769C14.0036 5.1954 13.9832 5.20264 13.9626 5.2094L14.0251 5.3994ZM13.9651 5.41913L14.0251 5.3994L13.9626 5.2094L13.9026 5.22913L13.9651 5.41913ZM12.753 5.33178C13.1298 5.51918 13.5653 5.55056 13.9651 5.41913L13.9026 5.22913C13.5528 5.34413 13.1717 5.31667 12.842 5.15271L12.753 5.33178ZM12.7234 5.31707L12.753 5.33179L12.842 5.15271L12.8124 5.13799L12.7234 5.31707ZM11.9312 4.42871C12.0712 4.81568 12.3549 5.13384 12.7234 5.31707L12.8124 5.13799C12.49 4.97766 12.2418 4.69928 12.1193 4.36068L11.9312 4.42871ZM11.8813 4.2908L11.9312 4.42871L12.1193 4.36068L12.0694 4.22277L11.8813 4.2908ZM16.0674 12.7541L16.1386 12.752L16.1326 12.5521L16.0615 12.5542L16.0674 12.7541ZM15.7271 14.4064L15.7552 14.5611L15.952 14.5254L15.9239 14.3707L15.7271 14.4064ZM4.98533 14.0583L4.83403 14.0517L4.82531 14.2515L4.9766 14.2581L4.98533 14.0583ZM10.9646 17.0706L10.8517 16.9407L10.7007 17.0718L10.8136 17.2017L10.9646 17.0706ZM7.8178 3.40611L7.82734 3.37323L7.63526 3.31752L7.62572 3.3504L7.8178 3.40611ZM13.9834 3.79457L14.0196 3.77946L13.9427 3.59485L13.9065 3.60995L13.9834 3.79457ZM16.9667 13.9744L16.9556 13.9767L16.9949 14.1728L17.0059 14.1706L16.9667 13.9744ZM16.1184 14.0531L16.1123 14.0534L16.1203 14.2532L16.1264 14.253L16.1184 14.0531ZM15.8516 15.4311L15.8514 15.4432L16.0513 15.4462L16.0515 15.4342L15.8516 15.4311ZM5.14218 15.3587L5.14259 15.3431L4.94265 15.3379L4.94225 15.3536L5.14218 15.3587ZM3.99045 13.9565L3.97916 13.9539L3.93354 14.1486L3.94484 14.1513L3.99045 13.9565ZM15.788 7.57544L15.78 7.58852L15.9504 7.69321L15.9584 7.68014L15.788 7.57544ZM15.7794 7.58956L15.7684 7.60785L15.9401 7.71046L15.951 7.69217L15.7794 7.58956ZM11.9 10C11.9 10.7732 11.2732 11.4 10.5 11.4V11.6C11.3837 11.6 12.1 10.8837 12.1 10H11.9ZM10.5 8.6C11.2732 8.6 11.9 9.2268 11.9 10H12.1C12.1 9.11634 11.3837 8.4 10.5 8.4V8.6ZM9.1 10C9.1 9.2268 9.7268 8.6 10.5 8.6V8.4C9.61634 8.4 8.9 9.11634 8.9 10H9.1ZM10.5 11.4C9.7268 11.4 9.1 10.7732 9.1 10H8.9C8.9 10.8837 9.61634 11.6 10.5 11.6V11.4ZM13.4 10C13.4 11.6016 12.1016 12.9 10.5 12.9V13.1C12.2121 13.1 13.6 11.7121 13.6 10H13.4ZM10.5 7.1C12.1016 7.1 13.4 8.39837 13.4 10H13.6C13.6 8.28792 12.2121 6.9 10.5 6.9V7.1ZM7.6 10C7.6 8.39837 8.89837 7.1 10.5 7.1V6.9C8.78792 6.9 7.4 8.28792 7.4 10H7.6ZM10.5 12.9C8.89837 12.9 7.6 11.6016 7.6 10H7.4C7.4 11.7121 8.78792 13.1 10.5 13.1V12.9Z" fill="#76787A" mask="url(#path-1-outside-1_1494_31329)"/>
</g>
</g>
</svg>
