<svg width="16" height="16" viewBox="0 0 16 16" fill="none" xmlns="http://www.w3.org/2000/svg">
<g clip-path="url(#clip0_1494_31315)">
<path fill-rule="evenodd" clip-rule="evenodd" d="M8 16C12.4183 16 16 12.4183 16 8C16 3.58172 12.4183 0 8 0C3.58172 0 0 3.58172 0 8C0 12.4183 3.58172 16 8 16Z" fill="#FFC256"/>
<path fill-rule="evenodd" clip-rule="evenodd" d="M5.39999 6.00351V5.6C5.39999 4.16406 6.56405 3 7.99999 3C9.43593 3 10.6 4.16406 10.6 5.6V6.00351C10.9461 6.01171 11.1649 6.03914 11.3448 6.13079C11.5706 6.24584 11.7542 6.42942 11.8692 6.65521C12 6.91191 12 7.24794 12 7.92V10.08C12 10.7521 12 11.0881 11.8692 11.3448C11.7542 11.5706 11.5706 11.7542 11.3448 11.8692C11.0881 12 10.7521 12 10.08 12H5.92C5.24794 12 4.91191 12 4.65521 11.8692C4.42942 11.7542 4.24584 11.5706 4.13079 11.3448C4 11.0881 4 10.7521 4 10.08V7.92C4 7.24794 4 6.91191 4.13079 6.65521C4.24584 6.42942 4.42942 6.24584 4.65521 6.13079C4.83508 6.03914 5.0539 6.01172 5.39999 6.00351ZM6.59999 5.6C6.59999 4.8268 7.2268 4.2 7.99999 4.2C8.77319 4.2 9.39999 4.8268 9.39999 5.6V6H6.59999V5.6ZM7.99999 7.90001C8.33136 7.90001 8.59999 8.16864 8.59999 8.50001V9.60001C8.59999 9.93138 8.33136 10.2 7.99999 10.2C7.66862 10.2 7.39999 9.93138 7.39999 9.60001V8.50001C7.39999 8.16864 7.66862 7.90001 7.99999 7.90001Z" fill="#2D2D2E"/>
</g>
<defs>
<clipPath id="clip0_1494_31315">
<rect width="16" height="16" fill="white"/>
</clipPath>
</defs>
</svg>
